<?xml version="1.0" encoding="UTF-8" standalone="no"?>
<!-- Created with Inkscape (http://www.inkscape.org/) -->

<svg
   xmlns:dc="http://purl.org/dc/elements/1.1/"
   xmlns:cc="http://creativecommons.org/ns#"
   xmlns:rdf="http://www.w3.org/1999/02/22-rdf-syntax-ns#"
   xmlns:svg="http://www.w3.org/2000/svg"
   xmlns="http://www.w3.org/2000/svg"
   xmlns:sodipodi="http://sodipodi.sourceforge.net/DTD/sodipodi-0.dtd"
   xmlns:inkscape="http://www.inkscape.org/namespaces/inkscape"
   id="svg2"
   version="1.1"
   inkscape:version="0.48.5 r10040"
   width="299"
   height="100.44953"
   xml:space="preserve"
   sodipodi:docname="Text_DYALOG Sicily 2015-right.svg"><metadata
     id="metadata8"><rdf:RDF><cc:Work
         rdf:about=""><dc:format>image/svg+xml</dc:format><dc:type
           rdf:resource="http://purl.org/dc/dcmitype/StillImage" /><dc:title /></cc:Work></rdf:RDF></metadata><defs
     id="defs6"><clipPath
       clipPathUnits="userSpaceOnUse"
       id="clipPath16"><path
         d="M 0,134 336,134 336,0 0,0 0,134 z"
         id="path18"
         inkscape:connector-curvature="0" /></clipPath><clipPath
       clipPathUnits="userSpaceOnUse"
       id="clipPath48"><path
         d="M 0,134 336,134 336,0 0,0 0,134 z"
         id="path50"
         inkscape:connector-curvature="0" /></clipPath></defs><sodipodi:namedview
     pagecolor="#ffffff"
     bordercolor="#666666"
     borderopacity="1"
     objecttolerance="10"
     gridtolerance="10"
     guidetolerance="10"
     inkscape:pageopacity="0"
     inkscape:pageshadow="2"
     inkscape:window-width="1145"
     inkscape:window-height="634"
     id="namedview4"
     showgrid="false"
     fit-margin-top="0"
     fit-margin-left="0"
     fit-margin-right="0"
     fit-margin-bottom="0"
     inkscape:zoom="2.1"
     inkscape:cx="148.48598"
     inkscape:cy="37.897315"
     inkscape:window-x="489"
     inkscape:window-y="107"
     inkscape:window-maximized="0"
     inkscape:current-layer="g10"><sodipodi:guide
       position="297.84207,52.314166"
       orientation="-12.81355,0"
       id="guide3194" /></sodipodi:namedview><g
     id="g10"
     inkscape:groupmode="layer"
     inkscape:label="Text_DYALOG Eastbourne 2014"
     transform="matrix(1.25,0,0,-1.25,-23.066875,124.67103)"><g
       id="g12"
       transform="matrix(0.79816555,0,0,0.79816555,3.724552,3.9109864)"><g
         id="g14"
         clip-path="url(#clipPath16)"><g
           id="g20"
           transform="translate(119.3618,118.582)"><path
             d="m 0,0 -8.093,0 c 0,0 -13.117,-23.783 -17.83,-32.33 -4.691,8.535 -17.748,32.21 -17.748,32.21 l -8.092,0.12 22.258,-40.634 0,-7.853 7.144,0 0,7.816 L 0,0"
             style="fill:#96989b;fill-opacity:1;fill-rule:nonzero;stroke:none"
             id="path22"
             inkscape:connector-curvature="0" /></g><g
           id="g24"
           transform="translate(115.8481,70.9756)"><path
             d="m 0,0 8.164,0.078 c 0,0 13.278,24.225 17.997,32.776 4.685,-8.542 18.155,-32.931 18.155,-32.931 L 52.329,0 26.162,47.668 0,0"
             style="fill:#96989b;fill-opacity:1;fill-rule:nonzero;stroke:none"
             id="path26"
             inkscape:connector-curvature="0" /></g><g
           id="g28"
           transform="translate(180.3828,118.2988)"><path
             d="m 0,0 0,-47.378 31.157,0 0,7.114 -24.045,0 L 7.112,0 0,0 z"
             style="fill:#96989b;fill-opacity:1;fill-rule:nonzero;stroke:none"
             id="path30"
             inkscape:connector-curvature="0" /></g><g
           id="g32"
           transform="translate(299.9307,119.0435)"><path
             d="m 0,0 c -17.077,0 -26.028,-12.133 -26.028,-24.121 0,-6.322 2.36,-12.221 6.617,-16.624 4.768,-4.909 11.482,-7.501 19.411,-7.501 l 18.151,0 0,12.843 -7.119,0 0,-5.738 -11.032,0 c -12.998,0 -18.929,8.819 -18.929,17.02 0,8.193 5.931,17.009 18.929,17.009 l 18.21,0 L 18.21,0 0,0"
             style="fill:#96989b;fill-opacity:1;fill-rule:nonzero;stroke:none"
             id="path34"
             inkscape:connector-curvature="0" /></g><g
           id="g36"
           transform="translate(19.6152,118.5527)"><path
             d="m 0,0 0,-12.837 7.108,0 0,5.731 11.028,0 c 5.97,0 10.91,-1.846 14.308,-5.344 2.979,-3.066 4.619,-7.213 4.619,-11.666 0,-8.194 -5.924,-17.015 -18.927,-17.015 l -18.202,0 0,-7.113 18.202,0 c 17.093,0 26.034,12.139 26.034,24.128 0,6.321 -2.353,12.214 -6.626,16.618 C 32.777,-2.588 26.067,0 18.136,0 L 0,0"
             style="fill:#96989b;fill-opacity:1;fill-rule:nonzero;stroke:none"
             id="path38"
             inkscape:connector-curvature="0" /></g><g
           id="g40"
           transform="translate(223.626,94.6875)"><path
             d="m 0,0 c 0,9.156 7.458,16.603 16.599,16.603 9.16,0 16.618,-7.447 16.618,-16.603 0,-9.152 -7.458,-16.603 -16.618,-16.603 C 7.458,-16.603 0,-9.152 0,0 m -7.138,0 c 0,-13.092 10.648,-23.746 23.737,-23.746 13.108,0 23.762,10.654 23.762,23.746 0,13.091 -10.654,23.746 -23.762,23.746 C 3.51,23.746 -7.138,13.091 -7.138,0"
             style="fill:#96989b;fill-opacity:1;fill-rule:nonzero;stroke:none"
             id="path42"
             inkscape:connector-curvature="0" /></g></g></g><g
       id="g52"
       transform="matrix(0.79816555,0,0,0.79816555,98.120479,99.368554)"><path
         d="m 0,0 -8.093,0 c 0,0 -13.117,-23.783 -17.83,-32.33 -4.691,8.535 -17.748,32.21 -17.748,32.21 l -8.092,0.12 22.258,-40.634 0,-7.853 7.144,0 0,7.816 L 0,0"
         style="fill:#f58735;fill-opacity:1;fill-rule:nonzero;stroke:none"
         id="path54"
         inkscape:connector-curvature="0" /></g><g
       id="g56"
       transform="matrix(0.79816555,0,0,0.79816555,95.315965,61.370685)"><path
         d="m 0,0 8.164,0.078 c 0,0 13.278,24.225 17.997,32.776 4.685,-8.542 18.155,-32.931 18.155,-32.931 L 52.329,0 26.162,47.668 0,0"
         style="fill:#f58735;fill-opacity:1;fill-rule:nonzero;stroke:none"
         id="path58"
         inkscape:connector-curvature="0" /></g><g
       id="g60"
       transform="matrix(0.79816555,0,0,0.79816555,146.82534,99.142513)"><path
         d="m 0,0 0,-47.378 31.157,0 0,7.114 -24.045,0 L 7.112,0 0,0 z"
         style="fill:#f58735;fill-opacity:1;fill-rule:nonzero;stroke:none"
         id="path62"
         inkscape:connector-curvature="0" /></g><g
       id="g64"
       transform="matrix(0.79816555,0,0,0.79816555,242.23965,99.736827)"><path
         d="m 0,0 c -17.077,0 -26.028,-12.133 -26.028,-24.121 0,-6.322 2.36,-12.221 6.617,-16.624 4.768,-4.909 11.482,-7.501 19.411,-7.501 l 18.151,0 0,12.843 -7.119,0 0,-5.738 -11.032,0 c -12.998,0 -18.929,8.819 -18.929,17.02 0,8.193 5.931,17.009 18.929,17.009 l 18.21,0 L 18.21,0 0,0"
         style="fill:#f58735;fill-opacity:1;fill-rule:nonzero;stroke:none"
         id="path66"
         inkscape:connector-curvature="0" /></g><g
       id="g68"
       transform="matrix(0.79816555,0,0,0.79816555,18.506179,99.345167)"><path
         d="m 0,0 0,-12.837 7.108,0 0,5.731 11.028,0 c 5.97,0 10.91,-1.846 14.308,-5.344 2.979,-3.066 4.619,-7.213 4.619,-11.666 0,-8.194 -5.924,-17.015 -18.927,-17.015 l -18.202,0 0,-7.113 18.202,0 c 17.093,0 26.034,12.139 26.034,24.128 0,6.321 -2.353,12.214 -6.626,16.618 C 32.777,-2.588 26.067,0 18.136,0 L 0,0"
         style="fill:#f58735;fill-opacity:1;fill-rule:nonzero;stroke:none"
         id="path70"
         inkscape:connector-curvature="0" /></g><g
       id="g72"
       transform="matrix(0.79816555,0,0,0.79816555,181.34057,80.296787)"><path
         d="m 0,0 c 0,9.156 7.458,16.603 16.598,16.603 9.161,0 16.619,-7.447 16.619,-16.603 0,-9.152 -7.458,-16.603 -16.619,-16.603 C 7.458,-16.603 0,-9.152 0,0 m -7.137,0 c 0,-13.092 10.647,-23.746 23.735,-23.746 13.109,0 23.761,10.654 23.761,23.746 0,13.091 -10.652,23.746 -23.761,23.746 C 3.51,23.746 -7.137,13.091 -7.137,0"
         style="fill:#f58735;fill-opacity:1;fill-rule:nonzero;stroke:none"
         id="path74"
         inkscape:connector-curvature="0" /></g><g
       transform="matrix(0.79816555,0,0,0.79816555,242.23965,99.736827)"
       id="g3188" /><g
       transform="matrix(0.60276135,0,0,-0.60276135,110.04156,119.79935)"
       style="font-size:40px;font-style:normal;font-weight:normal;line-height:125%;letter-spacing:0px;word-spacing:0px;fill:#373535;fill-opacity:1;stroke:none;font-family:Sans"
       id="flowRoot3042"><path
         d="m 70.84,143.34871 c -2.1e-5,1.41334 -0.280021,2.62667 -0.84,3.64 -0.560019,1.01334 -1.320019,1.85334 -2.28,2.52 -0.960017,0.64 -2.080016,1.12 -3.36,1.44 -1.253346,0.29333 -2.586678,0.44 -4,0.44 -1.093343,0 -2.093342,-0.0667 -3,-0.2 -0.906673,-0.13333 -1.720006,-0.29333 -2.44,-0.48 -0.693338,-0.18667 -1.293337,-0.37333 -1.8,-0.56 -0.480003,-0.21333 -0.840002,-0.4 -1.08,-0.56 l 1.32,-3.28 c 0.719996,0.29334 1.639995,0.62667 2.76,1 1.119993,0.37334 2.506658,0.56 4.16,0.56 0.879989,0 1.693321,-0.08 2.44,-0.24 0.77332,-0.16 1.439986,-0.4 2,-0.72 0.559985,-0.34666 0.999984,-0.78666 1.32,-1.32 0.34665,-0.55999 0.519983,-1.22666 0.52,-2 -1.7e-5,-1.06666 -0.346683,-1.93332 -1.04,-2.6 -0.666682,-0.69332 -1.506681,-1.29332 -2.52,-1.8 -1.013345,-0.53332 -2.120011,-1.03999 -3.32,-1.52 -1.173342,-0.50665 -2.266674,-1.10665 -3.28,-1.8 -1.013339,-0.69332 -1.866671,-1.54665 -2.56,-2.56 -0.66667,-1.01331 -1.000003,-2.30665 -1,-3.88 -3e-6,-1.19998 0.239997,-2.23998 0.72,-3.12 0.479996,-0.90664 1.133329,-1.63997 1.96,-2.2 0.82666,-0.58664 1.773326,-1.0133 2.84,-1.28 1.066657,-0.2933 2.173323,-0.43997 3.32,-0.44 1.093321,3e-5 2.039986,0.0534 2.84,0.16 0.826651,0.1067 1.546651,0.24003 2.16,0.4 0.613316,0.13336 1.119982,0.28003 1.52,0.44 0.426648,0.16003 0.773314,0.3067 1.04,0.44 l -1.32,3.12 c -0.613351,-0.21331 -1.400017,-0.43997 -2.36,-0.68 -0.960015,-0.23997 -2.200013,-0.35997 -3.72,-0.36 -1.52001,3e-5 -2.733342,0.25336 -3.64,0.76 -0.880007,0.50669 -1.320007,1.40002 -1.32,2.68 -7e-6,0.93336 0.346659,1.72002 1.04,2.36 0.693325,0.64002 1.546657,1.22669 2.56,1.76 1.039988,0.53335 2.159987,1.06668 3.36,1.6 1.226652,0.53335 2.34665,1.16002 3.36,1.88 1.039982,0.72001 1.906648,1.58668 2.6,2.6 0.693313,1.01334 1.039979,2.28001 1.04,3.8"
         style="font-variant:normal;font-stretch:normal;fill:#373535;font-family:FedraSans-Normal;-inkscape-font-specification:FedraSans-Normal"
         id="path3019" /><path
         d="m 79.40875,125.50871 -3.16,-3.2 3.16,-3.16 3.2,3.16 -3.2,3.2 m -2,25.44 0,-21.84 4.08,0 0,21.84 -4.08,0"
         style="font-variant:normal;font-stretch:normal;fill:#373535;font-family:FedraSans-Normal;-inkscape-font-specification:FedraSans-Normal"
         id="path3021" /><path
         d="m 103.61938,132.94871 c -0.58669,-0.26665 -1.30669,-0.49331 -2.16001,-0.68 -0.82668,-0.21331 -1.800009,-0.31998 -2.919995,-0.32 -1.920011,2e-5 -3.453343,0.64002 -4.6,1.92 -1.120007,1.28002 -1.680006,3.29335 -1.68,6.04 -6e-6,1.36001 0.10666,2.54668 0.32,3.56 0.239993,1.01334 0.639993,1.85334 1.2,2.52 0.586658,0.64001 1.373324,1.12001 2.36,1.44 1.013322,0.32 2.293321,0.48 3.84,0.48 0.879985,0 1.666655,-0.0667 2.360005,-0.2 0.71998,-0.13333 1.35998,-0.24 1.92,-0.32 l 0.56,3.16 c -0.61336,0.16 -1.34669,0.32 -2.20001,0.48 -0.85334,0.18667 -1.85334,0.28 -2.999995,0.28 -2.106678,0 -3.906677,-0.21333 -5.4,-0.64 -1.466674,-0.42666 -2.666672,-1.09333 -3.6,-2 -0.906671,-0.93333 -1.573337,-2.13333 -2,-3.6 -0.400002,-1.46666 -0.600002,-3.22666 -0.6,-5.28 -2e-6,-1.75999 0.253331,-3.33332 0.76,-4.72 0.53333,-1.38665 1.266662,-2.55998 2.2,-3.52 0.933327,-0.95998 2.066659,-1.69331 3.4,-2.2 1.333323,-0.53331 2.813322,-0.79998 4.44,-0.8 1.519985,2e-5 2.773315,0.13336 3.760005,0.4 0.98664,0.26669 1.78664,0.57336 2.4,0.92 l -1.36,3.08"
         style="font-variant:normal;font-stretch:normal;fill:#373535;font-family:FedraSans-Normal;-inkscape-font-specification:FedraSans-Normal"
         id="path3023" /><path
         d="m 112.84625,125.50871 -3.16,-3.2 3.16,-3.16 3.2,3.16 -3.2,3.2 m -2,25.44 0,-21.84 4.08,0 0,21.84 -4.08,0"
         style="font-variant:normal;font-stretch:normal;fill:#373535;font-family:FedraSans-Normal;-inkscape-font-specification:FedraSans-Normal"
         id="path3025" /><path
         d="m 123.21688,150.94871 0,-30.16 4.08,0 0,30.16 -4.08,0"
         style="font-variant:normal;font-stretch:normal;fill:#373535;font-family:FedraSans-Normal;-inkscape-font-specification:FedraSans-Normal"
         id="path3027" /><path
         d="m 141.81,159.70871 -3.96,0 3,-8.76 -1.72,0 -7.2,-21.84 4.4,0 4.52,14.92 1.12,3.8 1.24,-3.76 5.12,-14.96 4.2,0 -10.72,30.6"
         style="font-variant:normal;font-stretch:normal;fill:#373535;font-family:FedraSans-Normal;-inkscape-font-specification:FedraSans-Normal"
         id="path3029" /><path
         d="m 163.39125,150.94871 0,-3.28 c 0.45333,-0.4 1.05333,-0.87999 1.8,-1.44 0.77333,-0.58666 1.58666,-1.21333 2.44,-1.88 0.87999,-0.66666 1.74666,-1.35999 2.6,-2.08 0.87999,-0.74666 1.66666,-1.49332 2.36,-2.24 0.71999,-0.74665 1.29332,-1.46665 1.72,-2.16 0.45332,-0.71998 0.67999,-1.38665 0.68,-2 -1e-5,-0.69332 -0.12001,-1.27998 -0.36,-1.76 -0.21335,-0.47998 -0.52001,-0.85331 -0.92,-1.12 -0.37334,-0.29331 -0.82668,-0.49331 -1.36,-0.6 -0.50668,-0.13331 -1.05334,-0.19998 -1.64,-0.2 -0.56001,2e-5 -1.12001,0.0534 -1.68,0.16 -0.53334,0.08 -1.04001,0.18669 -1.52,0.32 -0.48,0.10669 -0.90667,0.24002 -1.28,0.4 -0.34667,0.13335 -0.62667,0.26669 -0.84,0.4 l -1.32,-3.08 c 0.26666,-0.18664 0.62666,-0.38664 1.08,-0.6 0.48,-0.21331 1.02666,-0.39998 1.64,-0.56 0.61333,-0.18664 1.26666,-0.33331 1.96,-0.44 0.71999,-0.10664 1.45333,-0.15998 2.2,-0.16 1.57332,2e-5 2.86665,0.21336 3.88,0.64 1.03999,0.42669 1.86665,0.98669 2.48,1.68 0.61332,0.66669 1.03998,1.41335 1.28,2.24 0.26665,0.80002 0.39998,1.58668 0.4,2.36 -2e-5,1.30668 -0.36002,2.54668 -1.08,3.72 -0.69335,1.14668 -1.56001,2.22668 -2.6,3.24 -1.01335,0.98668 -2.12001,1.90667 -3.32,2.76 -1.17334,0.82667 -2.24001,1.58667 -3.2,2.28 l 11.52,0 0,3.4 -16.92,0"
         style="font-variant:normal;font-stretch:normal;fill:#373535;font-family:FedraSans-Normal;-inkscape-font-specification:FedraSans-Normal"
         id="path3031" /><path
         d="m 207.23875,139.86871 c -3e-5,1.84001 -0.29336,3.48001 -0.88,4.92 -0.58669,1.41334 -1.41336,2.61334 -2.48,3.6 -1.04002,0.96 -2.28002,1.69334 -3.72,2.2 -1.41335,0.50667 -2.96002,0.76 -4.64,0.76 -1.70668,0 -3.28001,-0.24 -4.72,-0.72 -1.41334,-0.50666 -2.62667,-1.22666 -3.64,-2.16 -1.01334,-0.96 -1.81334,-2.13333 -2.4,-3.52 -0.56,-1.41332 -0.84,-3.02666 -0.84,-4.84 0,-1.81332 0.28,-3.42665 0.84,-4.84 0.58666,-1.41332 1.4,-2.59998 2.44,-3.56 1.03999,-0.98665 2.27999,-1.73331 3.72,-2.24 1.46666,-0.53331 3.06665,-0.79998 4.8,-0.8 1.73332,2e-5 3.30665,0.26669 4.72,0.8 1.41331,0.53336 2.62665,1.29335 3.64,2.28 1.01331,0.96002 1.78664,2.13335 2.32,3.52 0.55997,1.38668 0.83997,2.92001 0.84,4.6 m -4.04,0.08 c -2e-5,-1.11999 -0.18669,-2.15999 -0.56,-3.12 -0.37335,-0.95998 -0.89335,-1.78665 -1.56,-2.48 -0.66669,-0.69331 -1.46668,-1.23998 -2.4,-1.64 -0.90668,-0.39998 -1.92002,-0.59998 -3.04,-0.6 -1.12001,2e-5 -2.14668,0.18669 -3.08,0.56 -0.93334,0.34669 -1.74668,0.86669 -2.44,1.56 -0.66667,0.66668 -1.20001,1.49335 -1.6,2.48 -0.37334,0.98668 -0.56001,2.10668 -0.56,3.36 -1e-5,1.14668 0.19999,2.20001 0.6,3.16 0.39999,0.96001 0.93333,1.78667 1.6,2.48 0.69332,0.69334 1.50666,1.22667 2.44,1.6 0.93332,0.37334 1.93332,0.56 3,0.56 1.06665,0 2.06665,-0.18666 3,-0.56 0.93332,-0.37333 1.73331,-0.90666 2.4,-1.6 0.69331,-0.69333 1.22665,-1.51999 1.6,-2.48 0.39998,-0.98666 0.59998,-2.07999 0.6,-3.28"
         style="font-variant:normal;font-stretch:normal;fill:#373535;font-family:FedraSans-Normal;-inkscape-font-specification:FedraSans-Normal"
         id="path3033" /><path
         d="m 215.89312,150.94871 0,-18.44 -5.68,0 0,-3.16 9.76,-0.32 0,21.92 -4.08,0"
         style="font-variant:normal;font-stretch:normal;fill:#373535;font-family:FedraSans-Normal;-inkscape-font-specification:FedraSans-Normal"
         id="path3035" /><path
         d="m 243.31,148.74871 c -2e-5,1.46667 -0.25335,2.76 -0.76,3.88 -0.48002,1.12 -1.16002,2.06666 -2.04,2.84 -0.88002,0.77333 -1.92001,1.36 -3.12,1.76 -1.20001,0.39999 -2.52001,0.59999 -3.96,0.6 -1.01334,-1e-5 -1.88001,-0.0267 -2.6,-0.08 -0.69334,-0.0267 -1.30667,-0.08 -1.84,-0.16 -0.53334,-0.08 -1.01334,-0.17334 -1.44,-0.28 -0.42667,-0.08 -0.86667,-0.18667 -1.32,-0.32 0.10666,-0.42667 0.21333,-0.85334 0.32,-1.28 0.10666,-0.37334 0.21333,-0.76 0.32,-1.16 0.10666,-0.4 0.2,-0.76 0.28,-1.08 0.45333,0.13333 0.84,0.24 1.16,0.32 0.34666,0.10666 0.71999,0.18666 1.12,0.24 0.42666,0.08 0.94666,0.13333 1.56,0.16 0.61333,0.0533 1.41332,0.08 2.4,0.08 1.73332,0 3.13332,-0.45333 4.2,-1.36 1.09332,-0.90667 1.63998,-2.16 1.64,-3.76 -2e-5,-1.92 -0.52001,-3.29333 -1.56,-4.12 -1.04001,-0.85333 -2.37334,-1.27999 -4,-1.28 -0.96001,1e-5 -1.96001,0.0267 -3,0.08 -1.01334,0.0267 -2.2,0.10667 -3.56,0.24 l 0,-14.92 15.28,0 0,3.32 -11.44,0 0,8 c 0.61333,-0.0266 1.18666,-0.04 1.72,-0.04 0.53332,-0.0266 1.06666,-0.04 1.6,-0.04 2.74665,1e-5 4.93332,0.73334 6.56,2.2 1.65331,1.44001 2.47998,3.49334 2.48,6.16"
         style="font-variant:normal;font-stretch:normal;fill:#373535;font-family:FedraSans-Normal;-inkscape-font-specification:FedraSans-Normal"
         id="path3037" /></g></g></svg>