<?xml version="1.0" encoding="UTF-8" standalone="no"?>
<!-- Created with Inkscape (http://www.inkscape.org/) -->

<svg
   xmlns:dc="http://purl.org/dc/elements/1.1/"
   xmlns:cc="http://creativecommons.org/ns#"
   xmlns:rdf="http://www.w3.org/1999/02/22-rdf-syntax-ns#"
   xmlns:svg="http://www.w3.org/2000/svg"
   xmlns="http://www.w3.org/2000/svg"
   xmlns:sodipodi="http://sodipodi.sourceforge.net/DTD/sodipodi-0.dtd"
   xmlns:inkscape="http://www.inkscape.org/namespaces/inkscape"
   id="svg2"
   version="1.1"
   inkscape:version="0.48.5 r10040"
   width="343.33375"
   height="319.335"
   xml:space="preserve"
   sodipodi:docname="Dyalog15ship_Colour.svg"
   inkscape:export-filename="/home/jason/Desktop/ships/Dyalog15ship_10.png"
   inkscape:export-xdpi="90"
   inkscape:export-ydpi="90"><metadata
     id="metadata8"><rdf:RDF><cc:Work
         rdf:about=""><dc:format>image/svg+xml</dc:format><dc:type
           rdf:resource="http://purl.org/dc/dcmitype/StillImage" /><dc:title></dc:title></cc:Work></rdf:RDF></metadata><defs
     id="defs6"><linearGradient
       id="linearGradient5436"><stop
         style="stop-color:#f58735;stop-opacity:1;"
         offset="0"
         id="stop5438" /><stop
         id="stop5471"
         offset="0.17339088"
         style="stop-color:#f58735;stop-opacity:0.49803922;" /><stop
         style="stop-color:#f58735;stop-opacity:0.24705882;"
         offset="0.80750197"
         id="stop5473" /><stop
         style="stop-color:#f58735;stop-opacity:0;"
         offset="1"
         id="stop5440" /></linearGradient><clipPath
       clipPathUnits="userSpaceOnUse"
       id="clipPath16"><path
         d="m 0,255.468 274.667,0 L 274.667,0 0,0 0,255.468 z"
         id="path18" /></clipPath></defs><sodipodi:namedview
     pagecolor="#ffffff"
     bordercolor="#666666"
     borderopacity="1"
     objecttolerance="10"
     gridtolerance="10"
     guidetolerance="10"
     inkscape:pageopacity="0"
     inkscape:pageshadow="2"
     inkscape:window-width="1887"
     inkscape:window-height="1056"
     id="namedview4"
     showgrid="false"
     inkscape:zoom="3.3452304"
     inkscape:cx="174.13337"
     inkscape:cy="172.51092"
     inkscape:window-x="33"
     inkscape:window-y="24"
     inkscape:window-maximized="1"
     inkscape:current-layer="g10" /><g
     id="g10"
     inkscape:groupmode="layer"
     inkscape:label="DYALOG Sicily 2015_Ship alone"
     transform="matrix(1.25,0,0,-1.25,0,319.335)"><path
       style="fill:#f58735;stroke:none;stroke-width:1px;stroke-linecap:butt;stroke-linejoin:miter;stroke-opacity:1;fill-opacity:1"
       d="m 163.51639,165.08553 0.74733,-152.605337 c 0,0 1.64414,-4.185063 4.9324,-4.3345296 3.28826,-0.1494665 6.87546,2.5409316 6.57653,4.0355966 -0.29894,1.494665 -0.74734,153.6516 -0.74734,153.6516 0,0 -2.69039,-0.74733 -5.38079,-0.8968 -2.6904,-0.14947 -5.23133,0.4484 -5.23133,0.4484 z"
       id="path4372"
       inkscape:connector-curvature="0"
       transform="matrix(0.8,0,0,-0.8,0,255.468)" /><path
       style="fill:none;stroke:none;stroke-width:1px;stroke-linecap:butt;stroke-linejoin:miter;stroke-opacity:1;fill-opacity:1"
       d="m 66.497346,177.37033 c 0,0 3.348787,-0.59799 4.664382,1.3156 1.315595,1.91359 0.717598,6.09957 0.717598,6.09957 0,0 3.587986,-2.03319 5.860377,0.1196 2.272392,2.1528 1.554794,5.02319 1.554794,5.02319 0,0 3.946785,-2.2724 6.099577,-0.9568 2.152792,1.31559 2.75079,5.02318 2.75079,5.02318 0,0 2.870389,-2.15279 4.903581,-1.79399 2.033192,0.3588 3.707586,2.03319 3.707586,2.03319 0,0 9.089569,-4.90358 9.687559,-14.59115 0.598,-9.68756 -4.06638,-20.33192 -17.581129,-22.36511 -13.514749,-2.03319 -20.092723,9.20916 -20.92992,11.72076 -0.837197,2.51159 -1.435195,8.37196 -1.435195,8.37196 z"
       id="path4362"
       inkscape:connector-curvature="0"
       transform="matrix(0.8,0,0,-0.8,0,255.468)" /><path
       style="fill:none;stroke:none;stroke-width:1px;stroke-linecap:butt;stroke-linejoin:miter;stroke-opacity:1;fill-opacity:1"
       d="m 111.46677,194.23387 c 0,0 2.1528,-0.2392 3.10959,1.07639 0.9568,1.3156 2.0332,3.10959 2.0332,3.10959 0,0 0.71759,-1.31559 2.39199,-2.51159 1.67439,-1.19599 4.30558,-1.55479 5.50157,0.2392 1.196,1.79399 1.6744,3.10959 1.6744,3.10959 0,0 1.19599,-1.67439 2.39199,-2.63119 1.19599,-0.9568 3.70759,-1.67439 4.66438,-0.7176 0.9568,0.9568 2.63119,3.94679 2.63119,3.94679 0,0 0.598,-1.3156 2.15279,-2.51159 1.5548,-1.196 3.10959,-1.4352 3.70759,-1.4352 0.598,0 5.97998,-4.78398 6.33877,-11.84035 0.3588,-7.05638 -3.34878,-21.76712 -20.21232,-22.12592 -16.86353,-0.3588 -19.73392,15.06954 -19.97312,18.77713 -0.2392,3.70759 3.58798,13.51475 3.58798,13.51475 z"
       id="path4360"
       inkscape:connector-curvature="0"
       transform="matrix(0.8,0,0,-0.8,0,255.468)" /><path
       style="fill:none;stroke:none;stroke-width:1px;stroke-linecap:butt;stroke-linejoin:miter;stroke-opacity:1;fill-opacity:1"
       d="m 156.197,199.49625 c 0,0 0.1196,-2.87039 3.10959,-2.98999 2.98999,-0.1196 5.50158,1.79399 5.14278,2.63119 -0.3588,0.8372 0.4784,1.3156 0.4784,1.3156 0,0 0.3588,-2.0332 2.15279,-3.34879 1.794,-1.3156 4.54479,-0.9568 5.74078,0.598 1.196,1.55479 1.91359,3.10958 1.91359,3.10958 0,0 0.2392,-2.15279 2.1528,-3.70758 1.91359,-1.5548 5.02318,-0.8372 5.50157,0.1196 0.4784,0.95679 1.4352,2.15279 1.4352,2.15279 0,0 5.86038,-6.33878 5.97998,-14.94994 0.1196,-8.61117 -7.53478,-19.49473 -19.73393,-19.37513 -12.19915,0.1196 -19.85352,9.20917 -20.09272,18.17913 -0.2392,8.96997 6.33877,16.26554 6.21917,16.26554 z"
       id="path4358"
       inkscape:connector-curvature="0"
       transform="matrix(0.8,0,0,-0.8,0,255.468)" /><path
       style="fill:none;stroke:none;stroke-width:1px;stroke-linecap:butt;stroke-linejoin:miter;stroke-opacity:1;fill-opacity:1"
       d="m 196.74125,196.26706 c 0,0 1.79399,-1.07639 3.22919,-0.1196 1.43519,0.9568 2.63119,3.58799 2.63119,3.58799 0,0 1.91359,-3.10959 3.46838,-3.70759 1.5548,-0.598 3.46839,-0.7176 4.54479,0.4784 1.07639,1.196 1.91359,2.51159 1.91359,2.51159 0,0 0.9568,-2.39199 3.82718,-3.10959 2.87039,-0.71759 3.58799,-1.31559 4.42519,0.2392 0.83719,1.5548 2.03319,2.51159 2.03319,2.51159 0,0 0.2392,-1.91359 1.43519,-2.98999 1.196,-1.07639 3.82719,-2.27239 3.82719,-2.27239 0,0 4.90358,-6.57797 2.98999,-14.59114 -1.91359,-8.01317 -7.53477,-17.34194 -20.21232,-16.74394 -12.67756,0.598 -18.41833,9.80716 -19.01633,19.13593 -0.598,9.32876 4.90358,15.06954 4.90358,15.06954 z"
       id="path4356"
       inkscape:connector-curvature="0"
       transform="matrix(0.8,0,0,-0.8,0,255.468)" /><path
       style="fill:none;stroke:none;stroke-width:1px;stroke-linecap:butt;stroke-linejoin:miter;stroke-opacity:1;fill-opacity:1"
       d="m 242.42827,194.35347 c 0,0 0.7176,-2.03319 2.98999,-2.51159 2.27239,-0.4784 3.82719,1.19599 4.42519,1.67439 0.59799,0.4784 1.79399,0.7176 1.79399,0.7176 0,0 -0.598,-2.51159 0.598,-3.70759 1.19599,-1.19599 2.39199,-2.27239 3.94678,-1.91359 1.5548,0.3588 3.82719,1.3156 3.82719,1.3156 0,0 -0.2392,-2.1528 0.4784,-3.46839 0.71759,-1.3156 2.27239,-2.51159 3.82718,-2.39199 1.5548,0.1196 3.22919,0.3588 3.22919,0.3588 0,0 -1.0764,-2.87039 -0.4784,-4.30559 0.598,-1.43519 1.196,-2.27239 2.98999,-2.75079 1.79399,-0.47839 3.46839,-0.1196 3.46839,-0.1196 l -1.9136,-7.29557 c 0,0 -2.98999,-8.85036 -13.51474,-12.19915 -10.52476,-3.34879 -19.49473,4.66438 -21.88672,8.61117 -2.39199,3.94678 -5.38198,12.55795 -1.67439,18.65752 3.70758,6.09958 7.89356,9.32877 7.89356,9.32877 z"
       id="path4354"
       inkscape:connector-curvature="0"
       transform="matrix(0.8,0,0,-0.8,0,255.468)" /><path
       style="fill:#f58735;fill-opacity:1;stroke:none"
       d="m 60.038971,101.90302 c 0,0 -22.484714,55.97259 -24.159108,62.90936 -1.674394,6.93677 -8.132769,26.7903 -2.152792,42.33824 5.979977,15.54794 20.571122,28.70389 40.903044,35.16227 20.331923,6.45837 82.070955,9.35462 106.682795,8.13276 18.50292,-0.91858 43.96023,-0.90253 63.12526,-4.47081 15.88279,-2.95716 27.77039,-6.53234 27.77039,-6.53234 0,0 17.46153,-5.97998 24.15911,-16.26554 6.69757,-10.28556 15.78714,-20.57112 11.72075,-40.18545 -4.06638,-19.61432 -9.80716,-34.68387 -14.11274,-45.20863 -4.30559,-10.52476 -16.50474,-35.16226 -16.50474,-35.16226 l -4.78398,-0.9568 7.41517,19.37513 c 0,0 17.46153,38.98945 18.89673,50.23181 1.43519,11.24235 4.78398,25.5943 -0.7176,36.59746 -5.50158,11.00315 -12.19915,18.65753 -23.20231,23.20231 -11.00316,4.54478 -35.40146,12.43835 -72.95572,13.39515 -37.55426,0.95679 -89.69966,-0.7176 -102.138012,-3.10959 C 87.546866,238.9641 59.321374,232.98412 50.710206,222.22016 42.099039,211.4562 34.923067,202.36664 38.511053,181.79552 c 3.587986,-20.57113 13.15595,-41.14225 13.15595,-41.14225 l 16.026339,-39.46785 z"
       id="path4348"
       inkscape:connector-curvature="0"
       transform="matrix(0.8,0,0,-0.8,0,255.468)"
       sodipodi:nodetypes="cssssscssscccsssssssccc" /><rect
       style="fill:#f58735;fill-opacity:1;stroke:#f58735;stroke-width:2.33943009;stroke-linejoin:round;stroke-miterlimit:4;stroke-opacity:1;stroke-dasharray:none"
       id="rect3572"
       width="189.69545"
       height="5.8996701"
       x="30.573383"
       y="-167.69231"
       transform="scale(1,-1)"
       ry="0.47359002" /><g
       id="g20"
       transform="translate(42.0708,145.9126)"><path
         d="M 0,0 C 8.135,-3.609 19.223,-1.646 24.862,10.169 32.833,-4.91 53.279,-5.39 61.905,9.489 c 7.624,-14.879 41.874,-24.093 56.874,0.68 7.533,-14.788 25.444,-15.377 33.221,-1.154 0,-7.666 24.391,-18.293 30.764,1.979"
         style="fill:none;stroke:#373535;stroke-width:2.3499999;stroke-linecap:round;stroke-linejoin:miter;stroke-miterlimit:10;stroke-opacity:1;stroke-dasharray:none"
         id="path22"
         inkscape:connector-curvature="0" /></g><g
       id="g24"
       transform="translate(32.293,161.6206)"><path
         d="M 0,0 C -0.555,-5.226 1.656,-9.745 5.26,-12.858"
         style="fill:none;stroke:#373535;stroke-width:2.3499999;stroke-linecap:butt;stroke-linejoin:miter;stroke-miterlimit:10;stroke-opacity:1;stroke-dasharray:none"
         id="path26"
         inkscape:connector-curvature="0" /></g><g
       id="g28"
       transform="translate(66.9331,160.7241)"><path
         d="M 0,0 0,-19.547"
         style="fill:none;stroke:#373535;stroke-width:2.3499999;stroke-linecap:round;stroke-linejoin:miter;stroke-miterlimit:10;stroke-opacity:1;stroke-dasharray:none"
         id="path30"
         inkscape:connector-curvature="0" /></g><g
       id="g32"
       transform="translate(103.9756,160.7241)"><path
         d="M 0,0 0,-15.924"
         style="fill:none;stroke:#373535;stroke-width:2.3499999;stroke-linecap:round;stroke-linejoin:miter;stroke-miterlimit:10;stroke-opacity:1;stroke-dasharray:none"
         id="path34"
         inkscape:connector-curvature="0" /></g><g
       id="g36"
       transform="translate(160.6001,160.7241)"><path
         d="M 0,0 0,-26.195"
         style="fill:none;stroke:#373535;stroke-width:2.3499999;stroke-linecap:round;stroke-linejoin:miter;stroke-miterlimit:10;stroke-opacity:1;stroke-dasharray:none"
         id="path38"
         inkscape:connector-curvature="0" /></g><g
       id="g40"
       transform="translate(194.0708,160.7241)"><path
         d="M 0,0 0,-22.12"
         style="fill:none;stroke:#373535;stroke-width:2.3499999;stroke-linecap:round;stroke-linejoin:miter;stroke-miterlimit:10;stroke-opacity:1;stroke-dasharray:none"
         id="path42"
         inkscape:connector-curvature="0" /></g><g
       id="g44"
       transform="translate(131.2876,209.458)"><path
         d="M 0,0 -15.038,-40.682"
         style="fill:#ffffff;fill-opacity:1;fill-rule:nonzero;stroke:#373535;stroke-width:2.3499999;stroke-linecap:round;stroke-linejoin:miter;stroke-miterlimit:10;stroke-opacity:1;stroke-dasharray:none"
         id="path46"
         inkscape:connector-curvature="0" /></g><g
       id="g48"
       transform="translate(131.1045,224.8193)"><path
         d="M 0,0 -32.293,-56.455"
         style="fill:#ffffff;fill-opacity:1;fill-rule:nonzero;stroke:#373535;stroke-width:2.3499999;stroke-linecap:round;stroke-linejoin:miter;stroke-miterlimit:10;stroke-opacity:1;stroke-dasharray:none"
         id="path50"
         inkscape:connector-curvature="0" /></g><g
       id="g52"
       transform="translate(131.1045,235.4961)"><path
         d="M 0,0 -54.579,-67.131"
         style="fill:#ffffff;fill-opacity:1;fill-rule:nonzero;stroke:#373535;stroke-width:2.3499999;stroke-linecap:round;stroke-linejoin:miter;stroke-miterlimit:10;stroke-opacity:1;stroke-dasharray:none"
         id="path54"
         inkscape:connector-curvature="0" /></g><g
       id="g56"
       transform="translate(140.4287,210.2749)"><path
         d="M 0,0 37.978,-41.91"
         style="fill:#ffffff;fill-opacity:1;fill-rule:nonzero;stroke:#373535;stroke-width:2.3499999;stroke-linecap:round;stroke-linejoin:miter;stroke-miterlimit:10;stroke-opacity:1;stroke-dasharray:none"
         id="path58"
         inkscape:connector-curvature="0" /></g><g
       id="g60"
       transform="translate(48.5088,163.0317)"><path
         d="M 0,0 173.591,0"
         style="fill:#ffffff;fill-opacity:1;fill-rule:nonzero;stroke:none"
         id="path62"
         inkscape:connector-curvature="0" /></g><path
       style="fill:#f58735;fill-opacity:1;stroke:none"
       d="m 181.99046,99.604504 c 0,0 3.94591,7.652686 3.58719,11.000736 -0.35872,3.34806 -0.59787,10.16373 -10.2833,14.70751 -9.68543,4.54379 -18.17513,-3.70677 -20.0883,-7.89183 -1.91317,-4.18506 -2.86975,-9.20714 -0.35872,-14.10964 2.51104,-4.902504 3.1089,-4.543784 3.1089,-4.543784 0,0 2.51104,0.35872 3.22848,-0.837016 0.71744,-1.195728 1.43488,-2.032744 1.43488,-2.032744 0,0 0.71744,2.271888 2.63061,3.108904 1.91318,0.837016 4.18506,0.119576 4.18506,-0.837016 0,-0.956584 1.07616,-2.032744 1.07616,-2.032744 0,0 0.95659,1.7936 1.91318,2.630616 0.95658,0.837008 3.82634,0.837008 4.42421,-0.239152 0.59786,-1.076152 1.19573,-2.032744 1.19573,-2.032744 0,0 0.95658,2.15232 1.55445,2.630616 0.59787,0.478288 2.39147,0.478288 2.39147,0.478288 z"
       id="path3931"
       inkscape:connector-curvature="0" /><g
       id="g64"
       transform="translate(181.8149,100.0176)"
       style="fill:none;fill-opacity:1"><path
         d="m 0,0 c 2.155,2.736 3.44,6.19 3.439,9.944 0,8.882 -7.199,16.083 -16.079,16.083 -8.883,0 -16.086,-7.201 -16.086,-16.083 0,-4.455 1.81,-8.486 4.737,-11.397"
         style="fill:none;stroke:#373535;stroke-width:2.34999989999999981;stroke-linecap:butt;stroke-linejoin:miter;stroke-miterlimit:10;stroke-opacity:1;stroke-dasharray:none;fill-opacity:1"
         id="path66"
         inkscape:connector-curvature="0" /></g><path
       style="fill:#f58735;stroke:none;stroke-width:1px;stroke-linecap:butt;stroke-linejoin:miter;stroke-opacity:1;fill-opacity:1"
       d="m 273.52376,176.74392 c 0,0 -1.7936,-13.15306 -7.92173,-15.99292 -6.12812,-2.83987 -14.19932,-6.87546 -24.36304,-0.14947 -10.16373,6.72599 -9.11746,20.32745 -7.77226,22.41998 1.3452,2.09253 3.1388,6.2776 6.42706,8.81853 3.28826,2.54093 3.1388,2.09253 3.1388,2.09253 0,0 1.19573,-2.83987 3.13879,-2.39147 1.94307,0.4484 2.83987,0.8968 3.5872,1.64414 0.74733,0.74733 1.7936,0.74733 1.7936,0.74733 0,0 0,-3.5872 0.8968,-4.18507 0.8968,-0.59786 2.98933,-1.79359 4.18506,-1.19573 1.19573,0.59787 3.1388,1.49467 3.1388,1.49467 0,0 -0.14947,-3.43773 1.49467,-5.3808 1.64413,-1.94306 6.27759,-0.29893 6.27759,-0.29893 0,0 -1.49467,-4.18506 0.14947,-5.67973 1.64413,-1.49466 5.82919,-1.94306 5.82919,-1.94306 z"
       id="path3933"
       inkscape:connector-curvature="0"
       transform="matrix(0.8,0,0,-0.8,0,255.468)" /><g
       id="g68"
       transform="translate(193.8345,98.9673)"><path
         d="m 0,0 c -0.214,0 -0.43,0.058 -0.624,0.18 -5.067,3.184 -8.092,8.651 -8.092,14.623 0,9.516 7.743,17.258 17.261,17.258 7.512,0 14.093,-4.824 16.398,-11.867 0.124,-0.377 -1.002,-2.619 -1.218,-2.538 -0.349,0.131 -0.629,0.424 -0.727,0.812 -1.673,6.619 -7.616,11.243 -14.453,11.243 -8.222,0 -14.911,-6.688 -14.911,-14.908 0,-5.159 2.614,-9.882 6.992,-12.633 C 1.176,1.825 1.341,1.1 0.996,0.55 0.772,0.195 0.391,0 0,0"
         style="fill:#373535;fill-opacity:1;fill-rule:nonzero;stroke:none"
         id="path70"
         inkscape:connector-curvature="0" /></g><path
       style="fill:#f58735;stroke:none;stroke-width:1px;stroke-linecap:butt;stroke-linejoin:miter;stroke-opacity:1;fill-opacity:1"
       d="m 289.96508,146.25274 c 0,0 13.75092,32.43424 11.95732,46.63356 -1.7936,14.19932 -5.38079,27.35238 -19.28118,34.22784 -13.90039,6.87546 -32.28477,15.54452 -64.42008,16.74025 -32.1353,1.19573 -82.50553,1.04627 -82.50553,1.04627 0,0 -49.473419,-2.242 -67.708336,-12.40573 -18.234917,-10.16372 -23.466246,-11.50892 -29.295441,-31.08904 -5.829195,-19.58011 3.43773,-33.62997 4.483996,-37.0677 1.046266,-3.43773 6.875461,-20.17798 6.875461,-20.17798 0,0 0,3.73666 1.345198,4.33453 1.345199,0.59787 3.736664,1.94307 3.736664,1.94307 0,0 -2.989331,3.13879 -2.540931,5.08186 0.448399,1.94306 2.391464,4.03559 3.736663,3.73666 1.345199,-0.29893 1.644132,0.4484 1.644132,0.4484 0,0 -4.035596,3.28826 -2.690398,5.8292 1.345199,2.54093 3.587197,2.83986 4.78293,2.69039 1.195732,-0.14946 -1.793599,4.33453 -0.747333,6.57653 1.046266,2.242 4.334529,2.98933 5.231329,2.39147 0.896799,-0.59787 1.644131,-0.29894 1.644131,-0.29894 0,0 -3.43773,4.63347 -1.046265,6.87546 2.391464,2.242 6.427061,0.4484 6.427061,0.4484 0,0 -1.046266,5.08187 -0.298933,5.67973 0.747332,0.59787 3.43773,2.39147 5.380795,1.49467 1.943065,-0.8968 3.138797,-1.19574 3.138797,-1.19574 0,0 -0.896799,4.9324 2.839864,6.2776 3.736664,1.3452 5.380796,-2.6904 5.380796,-2.6904 0,0 0.448399,6.12813 4.334529,6.12813 3.88613,0 5.231329,-4.0356 5.231329,-4.0356 0,0 0.4484,4.9324 4.035592,5.53026 3.5872,0.59787 5.08187,-3.58719 5.08187,-3.58719 0,0 1.64413,4.63346 3.88613,4.78293 2.24199,0.14946 4.48399,-1.64414 5.53026,-3.1388 1.04626,-1.49467 2.242,3.73666 4.93239,3.73666 2.6904,0 3.1388,-1.64413 3.88613,-2.54093 0.74734,-0.8968 1.7936,-1.7936 1.7936,-1.7936 0,0 0.59787,4.78293 3.88613,4.484 3.28827,-0.29893 2.98933,-1.19573 3.73667,-2.09253 0.74733,-0.8968 1.49466,-1.7936 1.49466,-1.7936 0,0 1.64413,4.484 4.33453,4.33453 2.6904,-0.14947 3.28826,-0.74733 3.88613,-1.7936 0.59787,-1.04627 2.09253,-2.242 2.09253,-2.242 0,0 0.29894,3.43773 2.39147,4.0356 2.09253,0.59787 2.98933,1.04626 4.33453,-0.14947 1.3452,-1.19573 2.39146,-3.58719 2.39146,-3.58719 0,0 1.94307,4.33453 4.0356,4.33453 2.09253,0 4.63346,-2.242 4.93239,-3.28827 0.29894,-1.04626 1.19574,-1.49466 1.19574,-1.49466 0,0 1.04626,4.93239 3.58719,4.78293 2.54093,-0.14947 3.73667,-1.04627 4.0356,-1.7936 0.29893,-0.74734 1.64413,-2.39147 1.64413,-2.39147 0,0 1.04627,3.1388 3.88613,3.88613 2.83986,0.74733 3.5872,-1.19573 4.9324,-2.83986 1.3452,-1.64413 1.19573,-2.242 1.19573,-2.242 0,0 0.29893,4.78293 4.18506,4.9324 3.88613,0.14946 3.5872,-1.94307 3.5872,-1.94307 l 1.49466,-2.09253 c 0,0 1.19574,3.73666 4.78293,3.73666 3.5872,0 3.88613,-2.54093 3.88613,-2.54093 l 1.04627,-1.64413 c 0,0 0.59786,4.0356 4.63346,4.0356 4.0356,0 4.484,-4.33453 4.484,-4.33453 0,0 0.74733,3.88613 5.23133,4.03559 4.48399,0.14947 4.48399,-4.93239 4.48399,-4.93239 0,0 1.64413,4.93239 4.9324,4.18506 3.28826,-0.74733 3.43773,-2.54093 3.88613,-3.5872 0.4484,-1.04626 1.3452,-1.49466 1.3452,-1.49466 0,0 0.4484,4.63346 4.33453,3.58719 3.88613,-1.04626 4.03559,-3.43773 4.33453,-4.48399 0.29893,-1.04627 2.69039,3.88613 5.67972,3.28826 2.98933,-0.59786 3.5872,-2.83986 3.5872,-3.88613 0,-1.04626 0.59787,-2.54093 0.59787,-2.54093 0,0 2.242,4.18506 5.23133,2.83987 2.98933,-1.3452 3.28826,-4.18507 3.13879,-5.23133 -0.14946,-1.04627 0.29894,-2.242 0.29894,-2.242 0,0 2.39146,4.484 6.27759,1.94306 3.88613,-2.54093 0.74733,-6.42706 0.74733,-6.42706 0,0 4.484,3.28827 7.02493,-1.04626 2.54093,-4.33453 -0.8968,-6.2776 -0.8968,-6.2776 0,0 4.33453,2.83987 7.02493,-2.242 2.6904,-5.08186 -2.39147,-5.97866 -2.39147,-5.97866 0,0 4.9324,2.09253 6.42707,-3.13879 1.49466,-5.23133 -3.43774,-5.8292 -3.43774,-5.8292 0,0 4.484,0.74733 5.97867,-3.28826 1.49466,-4.0356 -3.1388,-6.2776 -3.1388,-6.2776 0,0 1.94306,0.4484 4.0356,-1.49466 2.09253,-1.94307 2.39146,-2.39147 2.39146,-2.39147 z"
       id="path3935"
       inkscape:connector-curvature="0"
       transform="matrix(0.8,0,0,-0.8,0,255.468)" /><g
       id="g72"
       transform="translate(135.7617,83.644)"><path
         d="M 0,0 7.246,0 C 12.942,0 38.328,1.065 57.397,3.574 71.334,5.407 92.155,9.842 96.18,36.127"
         style="fill:none;stroke:#373535;stroke-width:2.3499999;stroke-linecap:round;stroke-linejoin:miter;stroke-miterlimit:10;stroke-opacity:1;stroke-dasharray:none"
         id="path74"
         inkscape:connector-curvature="0" /></g><g
       id="g76"
       transform="translate(135.7617,71.0454)"><path
         d="m 0,0 7.479,0 c 5.696,0 28.698,0.396 47.766,2.905 13.937,1.833 36.336,5.488 43.703,28.732"
         style="fill:none;stroke:#373535;stroke-width:2.3499999;stroke-linecap:round;stroke-linejoin:miter;stroke-miterlimit:10;stroke-opacity:1;stroke-dasharray:none"
         id="path78"
         inkscape:connector-curvature="0" /></g><g
       id="g80"
       transform="translate(141.4717,107.3276)"><path
         d="m 0,0 c 0,-3.151 -2.553,-5.704 -5.703,-5.704 -3.151,0 -5.705,2.553 -5.705,5.704 0,3.15 2.554,5.704 5.705,5.704 C -2.553,5.704 0,3.15 0,0 z"
         style="fill:none;stroke:#373535;stroke-width:2.3499999;stroke-linecap:round;stroke-linejoin:miter;stroke-miterlimit:10;stroke-opacity:1;stroke-dasharray:none"
         id="path82"
         inkscape:connector-curvature="0" /></g><g
       id="g84"
       transform="translate(174.8115,109.8452)"
       style="fill:#ffffff;fill-opacity:1"><path
         d="m 0,0 c 0,-3.152 -2.555,-5.704 -5.703,-5.704 -3.151,0 -5.705,2.552 -5.705,5.704 0,3.149 2.554,5.703 5.705,5.703 C -2.555,5.703 0,3.149 0,0 z"
         style="fill:#ffffff;stroke:#373535;stroke-width:2.34999989999999981;stroke-linecap:round;stroke-linejoin:miter;stroke-miterlimit:10;stroke-opacity:1;stroke-dasharray:none;fill-opacity:1"
         id="path86"
         inkscape:connector-curvature="0" /></g><g
       id="g88"
       transform="translate(208.0161,113.6538)"
       style="fill:#ffffff;fill-opacity:1"><path
         d="m 0,0 c 0,-3.15 -2.555,-5.704 -5.703,-5.704 -3.151,0 -5.705,2.554 -5.705,5.704 0,3.15 2.554,5.704 5.705,5.704 C -2.555,5.704 0,3.15 0,0 z"
         style="fill:#ffffff;stroke:#373535;stroke-width:2.34999989999999981;stroke-linecap:round;stroke-linejoin:miter;stroke-miterlimit:10;stroke-opacity:1;stroke-dasharray:none;fill-opacity:1"
         id="path90"
         inkscape:connector-curvature="0" /></g><g
       id="g92"
       transform="translate(154.4238,95.3062)"
       style="fill:#ffffff;fill-opacity:1"><path
         d="m 0,0 c 0,-1.779 -1.441,-3.221 -3.219,-3.221 -1.778,0 -3.219,1.442 -3.219,3.221 0,1.777 1.441,3.219 3.219,3.219 C -1.441,3.219 0,1.777 0,0 z"
         style="fill:#ffffff;stroke:#373535;stroke-width:1.89999998000000003;stroke-linecap:round;stroke-linejoin:miter;stroke-miterlimit:10;stroke-opacity:1;stroke-dasharray:none;fill-opacity:1"
         id="path94"
         inkscape:connector-curvature="0" /></g><g
       id="g96"
       transform="translate(162.1484,95.5474)"
       style="fill:#ffffff;fill-opacity:1"><path
         d="m 0,0 c 0,-1.778 -1.44,-3.22 -3.22,-3.22 -1.777,0 -3.218,1.442 -3.218,3.22 0,1.778 1.441,3.219 3.218,3.219 C -1.44,3.219 0,1.778 0,0 z"
         style="fill:#ffffff;stroke:#373535;stroke-width:1.89999998000000003;stroke-linecap:round;stroke-linejoin:miter;stroke-miterlimit:10;stroke-opacity:1;stroke-dasharray:none;fill-opacity:1"
         id="path98"
         inkscape:connector-curvature="0" /></g><g
       id="g100"
       transform="translate(169.8623,95.8296)"
       style="fill:#ffffff;fill-opacity:1"><path
         d="m 0,0 c 0,-1.778 -1.441,-3.22 -3.219,-3.22 -1.777,0 -3.219,1.442 -3.219,3.22 0,1.779 1.442,3.22 3.219,3.22 C -1.441,3.22 0,1.779 0,0 z"
         style="fill:#ffffff;stroke:#373535;stroke-width:1.89999998000000003;stroke-linecap:round;stroke-linejoin:miter;stroke-miterlimit:10;stroke-opacity:1;stroke-dasharray:none;fill-opacity:1"
         id="path102"
         inkscape:connector-curvature="0" /></g><g
       id="g104"
       transform="translate(177.5513,96.2329)"
       style="fill:#ffffff;fill-opacity:1"><path
         d="m 0,0 c 0,-1.778 -1.441,-3.22 -3.219,-3.22 -1.779,0 -3.22,1.442 -3.22,3.22 0,1.778 1.441,3.22 3.22,3.22 C -1.441,3.22 0,1.778 0,0 z"
         style="fill:#ffffff;stroke:#373535;stroke-width:1.89999998000000003;stroke-linecap:round;stroke-linejoin:miter;stroke-miterlimit:10;stroke-opacity:1;stroke-dasharray:none;fill-opacity:1"
         id="path106"
         inkscape:connector-curvature="0" /></g><g
       id="g108"
       transform="translate(185.229,96.8062)"
       style="fill:#ffffff;fill-opacity:1"><path
         d="m 0,0 c 0,-1.778 -1.441,-3.22 -3.219,-3.22 -1.777,0 -3.219,1.442 -3.219,3.22 0,1.778 1.442,3.22 3.219,3.22 C -1.441,3.22 0,1.778 0,0 z"
         style="fill:#ffffff;stroke:#373535;stroke-width:1.89999998000000003;stroke-linecap:round;stroke-linejoin:miter;stroke-miterlimit:10;stroke-opacity:1;stroke-dasharray:none;fill-opacity:1"
         id="path110"
         inkscape:connector-curvature="0" /></g><g
       id="g112"
       transform="translate(192.8931,97.6255)"
       style="fill:#ffffff;fill-opacity:1"><path
         d="m 0,0 c 0,-1.778 -1.441,-3.22 -3.219,-3.22 -1.779,0 -3.22,1.442 -3.22,3.22 0,1.778 1.441,3.22 3.22,3.22 C -1.441,3.22 0,1.778 0,0 z"
         style="fill:#ffffff;stroke:#373535;stroke-width:1.89999998000000003;stroke-linecap:round;stroke-linejoin:miter;stroke-miterlimit:10;stroke-opacity:1;stroke-dasharray:none;fill-opacity:1"
         id="path114"
         inkscape:connector-curvature="0" /></g><g
       id="g116"
       transform="translate(200.5083,98.9282)"
       style="fill:#ffffff;fill-opacity:1"><path
         d="m 0,0 c 0,-1.778 -1.441,-3.219 -3.219,-3.219 -1.777,0 -3.219,1.441 -3.219,3.219 0,1.778 1.442,3.22 3.219,3.22 C -1.441,3.22 0,1.778 0,0 z"
         style="fill:#ffffff;stroke:#373535;stroke-width:1.89999998000000003;stroke-linecap:round;stroke-linejoin:miter;stroke-miterlimit:10;stroke-opacity:1;stroke-dasharray:none;fill-opacity:1"
         id="path118"
         inkscape:connector-curvature="0" /></g><g
       id="g120"
       transform="translate(207.7974,101.4194)"
       style="fill:#ffffff;fill-opacity:1"><path
         d="m 0,0 c 0,-1.778 -1.441,-3.22 -3.219,-3.22 -1.777,0 -3.22,1.442 -3.22,3.22 0,1.778 1.443,3.22 3.22,3.22 C -1.441,3.22 0,1.778 0,0 z"
         style="fill:#ffffff;stroke:#373535;stroke-width:1.89999998000000003;stroke-linecap:round;stroke-linejoin:miter;stroke-miterlimit:10;stroke-opacity:1;stroke-dasharray:none;fill-opacity:1"
         id="path122"
         inkscape:connector-curvature="0" /></g><g
       id="g124"
       transform="translate(214.4458,105.2417)"
       style="fill:#ffffff;fill-opacity:1"><path
         d="m 0,0 c 0,-1.778 -1.441,-3.221 -3.219,-3.221 -1.779,0 -3.22,1.443 -3.22,3.221 0,1.778 1.441,3.219 3.22,3.219 C -1.441,3.219 0,1.778 0,0 z"
         style="fill:#ffffff;stroke:#373535;stroke-width:1.89999998000000003;stroke-linecap:round;stroke-linejoin:miter;stroke-miterlimit:10;stroke-opacity:1;stroke-dasharray:none;fill-opacity:1"
         id="path126"
         inkscape:connector-curvature="0" /></g><g
       id="g128"
       transform="translate(224.3071,116.9224)"
       style="fill:#ffffff;fill-opacity:1"><path
         d="m 0,0 c 0,-1.778 -1.441,-3.219 -3.219,-3.219 -1.779,0 -3.22,1.441 -3.22,3.219 0,1.778 1.441,3.22 3.22,3.22 C -1.441,3.22 0,1.778 0,0 z"
         style="fill:#ffffff;stroke:#373535;stroke-width:1.89999998000000003;stroke-linecap:round;stroke-linejoin:miter;stroke-miterlimit:10;stroke-opacity:1;stroke-dasharray:none;fill-opacity:1"
         id="path130"
         inkscape:connector-curvature="0" /></g><g
       id="g132"
       transform="translate(219.9751,110.5474)"
       style="fill:#ffffff;fill-opacity:1"><path
         d="m 0,0 c 0,-1.778 -1.441,-3.22 -3.219,-3.22 -1.779,0 -3.22,1.442 -3.22,3.22 0,1.777 1.441,3.219 3.22,3.219 C -1.441,3.219 0,1.777 0,0 z"
         style="fill:#ffffff;stroke:#373535;stroke-width:1.89999998000000003;stroke-linecap:round;stroke-linejoin:miter;stroke-miterlimit:10;stroke-opacity:1;stroke-dasharray:none;fill-opacity:1"
         id="path134"
         inkscape:connector-curvature="0" /></g><g
       id="g136"
       transform="translate(227.3423,123.9653)"
       style="fill:#ffffff;fill-opacity:1"><path
         d="m 0,0 c 0,-1.778 -1.441,-3.219 -3.219,-3.219 -1.777,0 -3.22,1.441 -3.22,3.219 0,1.778 1.443,3.22 3.22,3.22 C -1.441,3.22 0,1.778 0,0 z"
         style="fill:#ffffff;stroke:#373535;stroke-width:1.89999998000000003;stroke-linecap:round;stroke-linejoin:miter;stroke-miterlimit:10;stroke-opacity:1;stroke-dasharray:none;fill-opacity:1"
         id="path138"
         inkscape:connector-curvature="0" /></g><g
       id="g140"
       transform="translate(229.4517,131.3101)"
       style="fill:#ffffff;fill-opacity:1"><path
         d="m 0,0 c 0,-1.779 -1.439,-3.22 -3.217,-3.22 -1.779,0 -3.221,1.441 -3.221,3.22 0,1.778 1.442,3.219 3.221,3.219 C -1.439,3.219 0,1.778 0,0 z"
         style="fill:#ffffff;stroke:#373535;stroke-width:1.89999998000000003;stroke-linecap:round;stroke-linejoin:miter;stroke-miterlimit:10;stroke-opacity:1;stroke-dasharray:none;fill-opacity:1"
         id="path142"
         inkscape:connector-curvature="0" /></g><g
       id="g144"
       transform="translate(231.272,138.604)"
       style="fill:#ffffff;fill-opacity:1"><path
         d="m 0,0 c 0,-1.778 -1.441,-3.219 -3.219,-3.219 -1.777,0 -3.219,1.441 -3.219,3.219 0,1.778 1.442,3.22 3.219,3.22 C -1.441,3.22 0,1.778 0,0 z"
         style="fill:#ffffff;stroke:#373535;stroke-width:1.89999998000000003;stroke-linecap:round;stroke-linejoin:miter;stroke-miterlimit:10;stroke-opacity:1;stroke-dasharray:none;fill-opacity:1"
         id="path146"
         inkscape:connector-curvature="0" /></g><g
       id="g148"
       transform="translate(130.0518,107.3276)"><path
         d="m 0,0 c 0,-3.151 2.554,-5.704 5.703,-5.704 3.151,0 5.705,2.553 5.705,5.704 0,3.15 -2.554,5.704 -5.705,5.704 C 2.554,5.704 0,3.15 0,0 z"
         style="fill:none;stroke:#373535;stroke-width:2.3499999;stroke-linecap:round;stroke-linejoin:miter;stroke-miterlimit:10;stroke-opacity:1;stroke-dasharray:none"
         id="path150"
         inkscape:connector-curvature="0" /></g><path
       style="fill:#f58735;stroke:none;stroke-width:1px;stroke-linecap:butt;stroke-linejoin:miter;stroke-opacity:1;fill-opacity:1"
       d="m 111.95044,194.38097 c 0,0 -3.1388,-3.5872 -3.43773,-6.726 -0.29894,-3.13879 -2.39147,-13.30252 3.88613,-18.98225 6.27759,-5.67973 13.60145,-8.37012 23.16731,-5.38079 9.56586,2.98933 11.65839,13.15305 12.25625,15.39505 0.59787,2.242 -0.29893,10.16373 -1.64413,12.10679 -1.3452,1.94307 -3.88613,4.9324 -3.88613,4.9324 0,0 -2.54093,0 -3.43773,0.59786 -0.8968,0.59787 -2.98933,3.28827 -2.98933,3.28827 0,0 -0.29893,-2.242 -2.54093,-3.1388 -2.242,-0.8968 -4.78293,-0.8968 -5.67973,0.4484 -0.8968,1.3452 -1.3452,2.6904 -1.3452,2.6904 0,0 -0.4484,-3.28827 -2.39146,-3.88613 -1.94307,-0.59787 -3.88613,-0.8968 -4.63346,0.29893 -0.74734,1.19573 -2.54094,2.83986 -2.54094,2.83986 0,0 -0.89679,-3.58719 -2.09253,-3.88613 -1.19573,-0.29893 -2.69039,-0.59786 -2.69039,-0.59786 z"
       id="path3925"
       inkscape:connector-curvature="0"
       transform="matrix(0.8,0,0,-0.8,0,255.468)" /><g
       id="g152"
       transform="translate(89.5073,100.2622)"
       style="fill:none;fill-opacity:1"><path
         d="m 0,0 c -2.041,2.696 -3.25,6.056 -3.25,9.699 0,8.882 7.2,16.083 16.08,16.083 8.883,0 16.086,-7.201 16.086,-16.083 0,-4.367 -1.742,-8.326 -4.566,-11.223"
         style="fill:none;stroke:#373535;stroke-width:2.34999989999999981;stroke-linecap:round;stroke-linejoin:miter;stroke-miterlimit:10;stroke-opacity:1;stroke-dasharray:none;fill-opacity:1"
         id="path154"
         inkscape:connector-curvature="0" /></g><path
       style="fill:#ffffff;stroke:none;stroke-width:1px;stroke-linecap:butt;stroke-linejoin:miter;stroke-opacity:1;fill-opacity:0"
       d="m 76.526866,159.70473 c 0,0 14.348788,-7.47333 24.811444,3.88613 10.46266,11.35946 3.28827,23.91465 1.7936,24.81145 -1.49467,0.8968 -6.277595,5.38079 -6.277595,5.38079 0,0 -0.298933,-2.39146 -4.782929,-1.7936 -4.483996,0.59787 -3.288264,2.09253 -3.288264,2.09253 0,0 -0.597866,-4.78292 -3.288263,-5.67972 -2.690398,-0.8968 -5.978662,1.79359 -5.978662,1.79359 0,0 2.391465,-2.69039 -1.195732,-5.38079 -3.587197,-2.6904 -5.679728,-0.59787 -5.679728,-0.59787 0,0 2.391464,-2.98933 -0.298934,-5.67973 -2.690397,-2.69039 -6.576527,-1.79359 -6.576527,-1.79359 0,0 1.494665,-7.77226 2.989331,-9.8648 1.494665,-2.09253 5.081862,-5.97866 7.772259,-7.17439 z"
       id="path5715"
       inkscape:connector-curvature="0"
       transform="matrix(0.8,0,0,-0.8,0,255.468)" /><path
       style="fill:#f58735;stroke:none;stroke-width:1px;stroke-linecap:butt;stroke-linejoin:miter;stroke-opacity:1;fill-opacity:1"
       d="m 66.961008,173.30619 c 0,0 2.092532,-8.968 7.174394,-12.10679 5.081862,-3.1388 8.519592,-4.63347 13.900388,-4.18507 5.380795,0.4484 12.70466,3.5872 15.84345,10.01426 3.1388,6.42706 3.43773,10.76159 2.09253,15.09612 -1.34519,4.33453 -5.38079,10.16373 -8.370122,11.65839 -2.989331,1.49467 -2.690398,-1.3452 -2.690398,-1.3452 0,0 -1.793598,-1.04626 -3.138797,-0.4484 -1.345199,0.59787 -3.88613,2.39147 -3.88613,2.39147 0,0 0.597866,-2.39147 -0.597866,-4.0356 -1.195732,-1.64413 -3.43773,-2.242 -4.782929,-1.7936 -1.345199,0.4484 -2.839864,1.7936 -2.839864,1.7936 0,0 0.448399,-1.94306 -0.4484,-3.88613 -0.896799,-1.94306 -2.241998,-3.28826 -4.035596,-2.98933 -1.793599,0.29893 -3.587197,1.04627 -3.587197,1.04627 0,0 1.644132,-2.98933 1.046266,-4.18507 -0.597867,-1.19573 -1.195733,-2.54093 -2.690398,-2.98933 -1.494665,-0.4484 -3.43773,0 -3.43773,0 z"
       id="path3923"
       inkscape:connector-curvature="0"
       transform="matrix(0.8,0,0,-0.8,0,255.468)" /><g
       id="g156"
       transform="translate(77.5273,98.8755)"><path
         d="m 0,0 c -0.395,0 -0.781,0.2 -1.003,0.561 -0.339,0.554 -0.165,1.277 0.388,1.616 4.465,2.737 7.131,7.491 7.131,12.718 0,8.22 -6.69,14.908 -14.912,14.908 -8.218,0 -14.905,-6.688 -14.905,-14.908 0,-0.649 -0.526,-1.175 -1.175,-1.175 -0.649,0 -1.174,0.526 -1.174,1.175 0,0.202 0.991,2.528 0.998,2.729 0.067,1.948 -0.642,1.025 -0.248,2.312 0.036,0.115 0.072,0.23 0.11,0.344 2.267,6.887 8.759,11.872 16.394,11.872 9.518,0 17.261,-7.741 17.261,-17.257 C 8.865,8.844 5.78,3.341 0.613,0.173 0.421,0.056 0.209,0 0,0"
         style="fill:#373535;fill-opacity:1;fill-rule:nonzero;stroke:none"
         id="path158"
         inkscape:connector-curvature="0" /></g><g
       id="g160"
       transform="translate(135.75,83.644)"><path
         d="M 0,0 -7.245,0 C -12.942,0 -38.328,1.065 -57.397,3.574 -71.334,5.407 -92.155,9.842 -96.18,36.127"
         style="fill:none;stroke:#373535;stroke-width:2.3499999;stroke-linecap:round;stroke-linejoin:miter;stroke-miterlimit:10;stroke-opacity:1;stroke-dasharray:none"
         id="path162"
         inkscape:connector-curvature="0" /></g><g
       id="g164"
       transform="translate(135.75,71.0454)"><path
         d="m 0,0 -7.478,0 c -5.697,0 -28.698,0.396 -47.767,2.905 -13.938,1.833 -36.336,5.488 -43.703,28.732"
         style="fill:none;stroke:#373535;stroke-width:2.3499999;stroke-linecap:round;stroke-linejoin:miter;stroke-miterlimit:10;stroke-opacity:1;stroke-dasharray:none"
         id="path166"
         inkscape:connector-curvature="0" /></g><g
       id="g168"
       transform="translate(96.7012,109.8452)"
       style="fill:#ffffff;fill-opacity:1"><path
         d="m 0,0 c 0,-3.152 2.554,-5.704 5.702,-5.704 3.151,0 5.705,2.552 5.705,5.704 0,3.149 -2.554,5.703 -5.705,5.703 C 2.554,5.703 0,3.149 0,0 z"
         style="fill:#ffffff;stroke:#373535;stroke-width:2.34999989999999981;stroke-linecap:round;stroke-linejoin:miter;stroke-miterlimit:10;stroke-opacity:1;stroke-dasharray:none;fill-opacity:1"
         id="path170"
         inkscape:connector-curvature="0" /></g><g
       id="g172"
       transform="translate(63.4961,113.6538)"
       style="fill-opacity:1;fill:#ffffff"><path
         d="m 0,0 c 0,-3.15 2.554,-5.704 5.702,-5.704 3.151,0 5.705,2.554 5.705,5.704 0,3.15 -2.554,5.704 -5.705,5.704 C 2.554,5.704 0,3.15 0,0 z"
         style="fill:#ffffff;stroke:#373535;stroke-width:2.34999989999999981;stroke-linecap:round;stroke-linejoin:miter;stroke-miterlimit:10;stroke-opacity:1;stroke-dasharray:none;fill-opacity:1"
         id="path174"
         inkscape:connector-curvature="0" /></g><g
       id="g176"
       transform="translate(117.0879,95.3062)"
       style="fill:#ffffff;fill-opacity:1"><path
         d="m 0,0 c 0,-1.779 1.441,-3.221 3.219,-3.221 1.778,0 3.219,1.442 3.219,3.221 0,1.777 -1.441,3.219 -3.219,3.219 C 1.441,3.219 0,1.777 0,0 z"
         style="fill:#ffffff;stroke:#373535;stroke-width:1.89999998000000003;stroke-linecap:round;stroke-linejoin:miter;stroke-miterlimit:10;stroke-opacity:1;stroke-dasharray:none;fill-opacity:1"
         id="path178"
         inkscape:connector-curvature="0" /></g><g
       id="g180"
       transform="translate(109.3643,95.5474)"
       style="fill:#ffffff;fill-opacity:1"><path
         d="m 0,0 c 0,-1.778 1.44,-3.22 3.219,-3.22 1.777,0 3.219,1.442 3.219,3.22 0,1.778 -1.442,3.219 -3.219,3.219 C 1.44,3.219 0,1.778 0,0 z"
         style="fill:#ffffff;stroke:#373535;stroke-width:1.89999998000000003;stroke-linecap:round;stroke-linejoin:miter;stroke-miterlimit:10;stroke-opacity:1;stroke-dasharray:none;fill-opacity:1"
         id="path182"
         inkscape:connector-curvature="0" /></g><g
       id="g184"
       transform="translate(101.6494,95.8296)"
       style="fill:#ffffff;fill-opacity:1"><path
         d="m 0,0 c 0,-1.778 1.441,-3.22 3.219,-3.22 1.778,0 3.219,1.442 3.219,3.22 0,1.779 -1.441,3.22 -3.219,3.22 C 1.441,3.22 0,1.779 0,0 z"
         style="fill:#ffffff;stroke:#373535;stroke-width:1.89999998000000003;stroke-linecap:round;stroke-linejoin:miter;stroke-miterlimit:10;stroke-opacity:1;stroke-dasharray:none;fill-opacity:1"
         id="path186"
         inkscape:connector-curvature="0" /></g><g
       id="g188"
       transform="translate(93.9609,96.2329)"
       style="fill:#ffffff;fill-opacity:1"><path
         d="m 0,0 c 0,-1.778 1.44,-3.22 3.22,-3.22 1.777,0 3.218,1.442 3.218,3.22 0,1.778 -1.441,3.22 -3.218,3.22 C 1.44,3.22 0,1.778 0,0 z"
         style="fill:#ffffff;stroke:#373535;stroke-width:1.89999998000000003;stroke-linecap:round;stroke-linejoin:miter;stroke-miterlimit:10;stroke-opacity:1;stroke-dasharray:none;fill-opacity:1"
         id="path190"
         inkscape:connector-curvature="0" /></g><g
       id="g192"
       transform="translate(86.2822,96.8062)"
       style="fill:#ffffff;fill-opacity:1"><path
         d="m 0,0 c 0,-1.778 1.441,-3.22 3.219,-3.22 1.778,0 3.22,1.442 3.22,3.22 0,1.778 -1.442,3.22 -3.22,3.22 C 1.441,3.22 0,1.778 0,0 z"
         style="fill:#ffffff;stroke:#373535;stroke-width:1.89999998000000003;stroke-linecap:round;stroke-linejoin:miter;stroke-miterlimit:10;stroke-opacity:1;stroke-dasharray:none;fill-opacity:1"
         id="path194"
         inkscape:connector-curvature="0" /></g><g
       id="g196"
       transform="translate(78.6191,97.6255)"
       style="fill:#ffffff;fill-opacity:1"><path
         d="m 0,0 c 0,-1.778 1.44,-3.22 3.219,-3.22 1.778,0 3.219,1.442 3.219,3.22 0,1.778 -1.441,3.22 -3.219,3.22 C 1.44,3.22 0,1.778 0,0 z"
         style="fill:#ffffff;stroke:#373535;stroke-width:1.89999998000000003;stroke-linecap:round;stroke-linejoin:miter;stroke-miterlimit:10;stroke-opacity:1;stroke-dasharray:none;fill-opacity:1"
         id="path198"
         inkscape:connector-curvature="0" /></g><g
       id="g200"
       transform="translate(71.0029,98.9282)"
       style="fill:#ffffff;fill-opacity:1"><path
         d="m 0,0 c 0,-1.778 1.441,-3.219 3.219,-3.219 1.777,0 3.219,1.441 3.219,3.219 0,1.778 -1.442,3.22 -3.219,3.22 C 1.441,3.22 0,1.778 0,0 z"
         style="fill:#ffffff;stroke:#373535;stroke-width:1.89999998000000003;stroke-linecap:round;stroke-linejoin:miter;stroke-miterlimit:10;stroke-opacity:1;stroke-dasharray:none;fill-opacity:1"
         id="path202"
         inkscape:connector-curvature="0" /></g><g
       id="g204"
       transform="translate(63.7139,101.4194)"
       style="fill:#ffffff;fill-opacity:1"><path
         d="m 0,0 c 0,-1.778 1.441,-3.22 3.219,-3.22 1.778,0 3.219,1.442 3.219,3.22 0,1.778 -1.441,3.22 -3.219,3.22 C 1.441,3.22 0,1.778 0,0 z"
         style="fill:#ffffff;fill-opacity:1;stroke:#373535;stroke-width:1.89999998000000003;stroke-linecap:round;stroke-linejoin:miter;stroke-miterlimit:10;stroke-opacity:1;stroke-dasharray:none"
         id="path206"
         inkscape:connector-curvature="0" /></g><g
       id="g208"
       transform="translate(57.0654,105.2417)"
       style="fill:#ffffff;fill-opacity:1"><path
         d="m 0,0 c 0,-1.778 1.441,-3.221 3.219,-3.221 1.779,0 3.22,1.443 3.22,3.221 0,1.778 -1.441,3.219 -3.22,3.219 C 1.441,3.219 0,1.778 0,0 z"
         style="fill:#ffffff;stroke:#373535;stroke-width:1.89999998000000003;stroke-linecap:round;stroke-linejoin:miter;stroke-miterlimit:10;stroke-opacity:1;stroke-dasharray:none;fill-opacity:1"
         id="path210"
         inkscape:connector-curvature="0" /></g><g
       id="g212"
       transform="translate(47.2061,116.9224)"
       style="fill:#ffffff;fill-opacity:1"><path
         d="m 0,0 c 0,-1.778 1.44,-3.219 3.219,-3.219 1.777,0 3.219,1.441 3.219,3.219 0,1.778 -1.442,3.22 -3.219,3.22 C 1.44,3.22 0,1.778 0,0 z"
         style="fill:#ffffff;stroke:#373535;stroke-width:1.89999998000000003;stroke-linecap:round;stroke-linejoin:miter;stroke-miterlimit:10;stroke-opacity:1;stroke-dasharray:none;fill-opacity:1"
         id="path214"
         inkscape:connector-curvature="0" /></g><g
       id="g216"
       transform="translate(51.5371,110.5474)"
       style="fill:#ffffff;fill-opacity:1"><path
         d="m 0,0 c 0,-1.778 1.441,-3.22 3.219,-3.22 1.778,0 3.219,1.442 3.219,3.22 0,1.777 -1.441,3.219 -3.219,3.219 C 1.441,3.219 0,1.777 0,0 z"
         style="fill:#ffffff;stroke:#373535;stroke-width:1.89999998000000003;stroke-linecap:round;stroke-linejoin:miter;stroke-miterlimit:10;stroke-opacity:1;stroke-dasharray:none;fill-opacity:1"
         id="path218"
         inkscape:connector-curvature="0" /></g><g
       id="g220"
       transform="translate(44.1689,123.9653)"
       style="fill:#ffffff;fill-opacity:1"><path
         d="m 0,0 c 0,-1.778 1.441,-3.219 3.219,-3.219 1.777,0 3.219,1.441 3.219,3.219 0,1.778 -1.442,3.22 -3.219,3.22 C 1.441,3.22 0,1.778 0,0 z"
         style="fill:#ffffff;stroke:#373535;stroke-width:1.89999998000000003;stroke-linecap:round;stroke-linejoin:miter;stroke-miterlimit:10;stroke-opacity:1;stroke-dasharray:none;fill-opacity:1"
         id="path222"
         inkscape:connector-curvature="0" /></g><g
       id="g224"
       transform="translate(42.0586,131.3101)"
       style="fill:#ffffff;fill-opacity:1"><path
         d="m 0,0 c 0,-1.779 1.44,-3.22 3.219,-3.22 1.778,0 3.219,1.441 3.219,3.22 0,1.778 -1.441,3.219 -3.219,3.219 C 1.44,3.219 0,1.778 0,0 z"
         style="fill:#ffffff;stroke:#373535;stroke-width:1.89999998000000003;stroke-linecap:round;stroke-linejoin:miter;stroke-miterlimit:10;stroke-opacity:1;stroke-dasharray:none;fill-opacity:1"
         id="path226"
         inkscape:connector-curvature="0" /></g><g
       id="g228"
       transform="translate(40.2393,138.604)"
       style="fill:#ffffff;fill-opacity:1"><path
         d="m 0,0 c 0,-1.778 1.441,-3.219 3.219,-3.219 1.777,0 3.219,1.441 3.219,3.219 0,1.778 -1.442,3.22 -3.219,3.22 C 1.441,3.22 0,1.778 0,0 z"
         style="fill:#ffffff;stroke:#373535;stroke-width:1.89999998000000003;stroke-linecap:round;stroke-linejoin:miter;stroke-miterlimit:10;stroke-opacity:1;stroke-dasharray:none;fill-opacity:1"
         id="path230"
         inkscape:connector-curvature="0" /></g><g
       id="g232"
       transform="translate(77.7979,43.0278)"
       style="fill:#f58735;fill-opacity:1"><path
         d="m 0,0 c 4.045,-0.216 10.363,-7.243 15.309,-6.129 4.945,1.114 53.793,25.224 103.349,-5.759 C 136.783,-23.219 55.333,-41.324 18.499,-22.29 9.512,-17.646 7.825,-28.607 3.219,-27.493 -1.387,-26.378 -13.895,0.744 0,0 z"
         style="fill:#f58735;stroke:#373535;stroke-width:2.34999989999999981;stroke-linecap:round;stroke-linejoin:miter;stroke-miterlimit:10;stroke-opacity:1;stroke-dasharray:none;fill-opacity:1"
         id="path234"
         inkscape:connector-curvature="0" /></g><path
       style="fill:#ffffff;fill-opacity:1;stroke:none"
       d="m 195.73566,281.28702 c 0,0 -6.86977,11.67862 -10.56888,13.73955 -4.73302,2.63697 -10.14613,-10.14613 -14.79643,-9.08924 -4.65031,1.05689 -9.93475,9.30061 -14.79643,9.30061 -4.86169,0 -10.78026,-7.82097 -12.89404,-8.66648 -2.11377,-0.84551 -5.07306,0.63414 -6.34133,1.47965 -1.26826,0.84551 -2.32515,5.28444 -2.32515,5.28444 l -4.22755,-20.50363 c 0,0 2.32515,8.4551 5.49582,8.4551 3.17066,0 9.72337,-9.51199 12.47127,-9.93474 2.74791,-0.42276 5.91858,-1.26827 5.91858,-1.26827 0,0 6.12995,8.24373 9.93474,8.4551 3.8048,0.21138 4.86169,1.69103 5.91858,0.42276 1.05689,-1.26827 5.07306,-7.60959 6.76408,-8.03235 1.69102,-0.42275 4.65031,-1.26827 6.55271,-0.42275 1.90239,0.84551 7.18683,8.66648 8.66648,8.24372 1.47964,-0.42275 3.80479,0 3.80479,0 z"
       id="path4382"
       inkscape:connector-curvature="0"
       transform="matrix(0.8,0,0,-0.8,0,255.468)"
       sodipodi:nodetypes="csssssccsscssssscc" /><g
       id="g236"
       transform="translate(179.8677,29.561)"
       style="fill:#ffffff;fill-opacity:1"><path
         d="m 0,0 c 0,-2.821 -2.289,-5.108 -5.109,-5.108 -2.822,0 -5.109,2.287 -5.109,5.108 0,2.821 2.287,5.108 5.109,5.108 C -2.289,5.108 0,2.821 0,0 z"
         style="fill:#ffffff;stroke:#373535;stroke-width:2.34999989999999981;stroke-linecap:round;stroke-linejoin:miter;stroke-miterlimit:10;stroke-opacity:1;stroke-dasharray:none;fill-opacity:1"
         id="path238"
         inkscape:connector-curvature="0" /></g><g
       id="g240"
       transform="translate(103.9756,38.0132)"><path
         d="m 0,0 c 0,-3.157 1.272,-7.432 5.215,-7.432 3.941,0 6.355,8.732 11.371,8.732 5.016,0 7.894,-7.43 12.307,-7.43 4.412,0 6.084,7.43 11.285,7.43 5.202,0 5.811,-7.059 10.615,-7.059 4.804,0 7.725,3.902 10.836,11.868"
         style="fill:none;stroke:#373535;stroke-width:2.3499999;stroke-linecap:round;stroke-linejoin:miter;stroke-miterlimit:10;stroke-opacity:1;stroke-dasharray:none"
         id="path242"
         inkscape:connector-curvature="0" /></g><g
       id="g244"
       transform="translate(107.0869,20.7183)"><path
         d="m 0,0 c 0,3.158 1.711,5.975 5.652,5.975 3.943,0 5.918,-7.275 10.934,-7.275 5.016,0 7.895,7.431 12.307,7.431 4.412,0 6.084,-7.431 11.285,-7.431 5.201,0 5.181,11.163 9.985,11.163 4.804,0 6.966,-6.965 11.133,-15.803"
         style="fill:none;stroke:#373535;stroke-width:2.3499999;stroke-linecap:round;stroke-linejoin:miter;stroke-miterlimit:10;stroke-opacity:1;stroke-dasharray:none"
         id="path246"
         inkscape:connector-curvature="0" /></g><g
       id="g248"
       transform="translate(131.2876,122.6997)"><path
         d="m 0,0 0,121.79 c 0,2.485 2.015,4.5 4.5,4.5 2.485,0 4.5,-2.015 4.5,-4.5 L 9,0.386"
         style="fill:none;stroke:#373535;stroke-width:2.3499999;stroke-linecap:round;stroke-linejoin:miter;stroke-miterlimit:10;stroke-opacity:1;stroke-dasharray:none"
         id="path250"
         inkscape:connector-curvature="0" /></g><path
       style="fill:#f58735;stroke:none;stroke-width:1px;stroke-linecap:butt;stroke-linejoin:miter;stroke-opacity:1;fill-opacity:1"
       d="m 184.59117,198.11763 c 0,0 3.43773,-2.83986 4.484,-6.87546 1.04626,-4.0356 1.94306,-9.71532 -1.7936,-16.59079 -3.73666,-6.87546 -10.46266,-9.41639 -17.48759,-9.86479 -7.02492,-0.4484 -14.19932,5.3808 -15.54451,7.02493 -1.3452,1.64413 -4.33453,6.87546 -4.484,11.35946 -0.14947,4.48399 1.49466,10.61212 3.28826,12.70465 1.7936,2.09253 2.98933,3.1388 2.98933,3.1388 0,0 0.74734,-2.54093 3.28827,-2.6904 2.54093,-0.14946 5.08186,2.09253 4.93239,2.83987 -0.14946,0.74733 0.4484,1.3452 0.4484,1.3452 0,0 -0.4484,-1.04627 1.94307,-2.98934 2.39146,-1.94306 4.78293,-1.49466 5.97866,-0.29893 1.19573,1.19573 2.09253,2.6904 2.09253,2.6904 0,0 -0.14947,-1.19573 2.242,-2.6904 2.39146,-1.49466 4.63346,-0.59786 5.23133,0 0.59786,0.59787 1.19573,2.09253 1.19573,2.09253 z"
       id="path3927"
       inkscape:connector-curvature="0"
       transform="matrix(0.8,0,0,-0.8,0,255.468)" /><g
       id="g252"
       transform="translate(130.04,107.3276)"
       style="fill:#ffffff;fill-opacity:1"><path
         d="m 0,0 c 0,-3.151 2.554,-5.704 5.703,-5.704 3.151,0 5.705,2.553 5.705,5.704 0,3.15 -2.554,5.704 -5.705,5.704 C 2.554,5.704 0,3.15 0,0 z"
         style="fill:#ffffff;stroke:#373535;stroke-width:2.34999989999999981;stroke-linecap:round;stroke-linejoin:miter;stroke-miterlimit:10;stroke-opacity:1;stroke-dasharray:none;fill-opacity:1"
         id="path254"
         inkscape:connector-curvature="0" /></g><g
       id="g256"
       transform="translate(147.3037,96.207)"
       style="fill:none"><path
         d="m 0,0 c 2.833,2.899 4.58,6.863 4.58,11.238 0,8.882 -7.202,16.083 -16.085,16.083 -8.881,0 -16.081,-7.201 -16.081,-16.083 0,-4.54 1.881,-8.636 4.904,-11.561"
         style="fill:none;stroke:#373535;stroke-width:2.34999989999999981;stroke-linecap:round;stroke-linejoin:miter;stroke-miterlimit:10;stroke-opacity:1;stroke-dasharray:none"
         id="path258"
         inkscape:connector-curvature="0" /></g><g
       id="g260"
       transform="translate(146.7021,95.1479)"
       style="fill:#ffffff;fill-opacity:1"><path
         d="m 0,0 c 0,-1.779 -1.441,-3.219 -3.219,-3.219 -1.777,0 -3.219,1.44 -3.219,3.219 0,1.778 1.442,3.219 3.219,3.219 C -1.441,3.219 0,1.778 0,0 z"
         style="fill:#ffffff;stroke:#373535;stroke-width:1.89999998000000003;stroke-linecap:round;stroke-linejoin:miter;stroke-miterlimit:10;stroke-opacity:1;stroke-dasharray:none;fill-opacity:1"
         id="path262"
         inkscape:connector-curvature="0" /></g><g
       id="g264"
       transform="translate(138.9756,95.3062)"
       style="fill:#ffffff;fill-opacity:1"><path
         d="m 0,0 c 0,-1.779 -1.441,-3.221 -3.219,-3.221 -1.779,0 -3.22,1.442 -3.22,3.221 0,1.777 1.441,3.219 3.22,3.219 C -1.441,3.219 0,1.777 0,0 z"
         style="fill:#ffffff;stroke:#373535;stroke-width:1.89999998000000003;stroke-linecap:round;stroke-linejoin:miter;stroke-miterlimit:10;stroke-opacity:1;stroke-dasharray:none;fill-opacity:1"
         id="path266"
         inkscape:connector-curvature="0" /></g><g
       id="g268"
       transform="translate(124.8096,95.1479)"
       style="fill:#ffffff;fill-opacity:1"><path
         d="m 0,0 c 0,-1.779 1.441,-3.219 3.219,-3.219 1.777,0 3.219,1.44 3.219,3.219 0,1.778 -1.442,3.219 -3.219,3.219 C 1.441,3.219 0,1.778 0,0 z"
         style="fill:#ffffff;stroke:#373535;stroke-width:1.89999998000000003;stroke-linecap:round;stroke-linejoin:miter;stroke-miterlimit:10;stroke-opacity:1;stroke-dasharray:none;fill-opacity:1"
         id="path270"
         inkscape:connector-curvature="0" /></g><g
       id="g272"
       transform="translate(51.6011,168.3647)"><path
         d="M 0,0 168.091,0"
         style="fill:#ffffff;fill-opacity:1;fill-rule:nonzero;stroke:#373535;stroke-width:2.3499999;stroke-linecap:round;stroke-linejoin:miter;stroke-miterlimit:10;stroke-opacity:1;stroke-dasharray:none"
         id="path274"
         inkscape:connector-curvature="0" /></g><g
       id="g276"
       transform="translate(43.2446,161.6206)"><path
         d="m 0,0 -10.952,0 c -1.862,0 -3.372,1.509 -3.372,3.372 0,1.862 1.51,3.372 3.372,3.372 l 13.457,0"
         style="fill:none;stroke:#373535;stroke-width:2.3499999;stroke-linecap:round;stroke-linejoin:miter;stroke-miterlimit:10;stroke-opacity:1;stroke-dasharray:none"
         id="path278"
         inkscape:connector-curvature="0" /></g><g
       id="g280"
       transform="translate(222.646,161.6206)"><path
         d="M 0,0 -173.938,0"
         style="fill:#ffffff;fill-opacity:1;fill-rule:nonzero;stroke:#373535;stroke-width:2.3499999;stroke-linecap:round;stroke-linejoin:miter;stroke-miterlimit:10;stroke-opacity:1;stroke-dasharray:none"
         id="path282"
         inkscape:connector-curvature="0" /></g><g
       id="g284"
       transform="translate(54.0337,174.1709)"><path
         d="m 0,0 c -1.351,-3.302 -3.57,-8.487 -5.178,-12.209 -7.175,-16.608 -19.182,-44.405 -18.852,-58.647 0.196,-8.438 1.908,-19.244 13.516,-27.976 C 2.867,-108.897 26.819,-114 60.679,-114 l 17.655,0 6.776,0 17.656,0 c 33.859,0 57.812,5.103 71.193,15.168 11.605,8.732 13.32,19.538 13.514,27.976 0.332,14.242 -11.676,42.039 -18.85,58.647 -1.658,3.838 -3.967,9.23 -5.301,12.51"
         style="fill:none;stroke:#373535;stroke-width:2.3499999;stroke-linecap:round;stroke-linejoin:miter;stroke-miterlimit:10;stroke-opacity:1;stroke-dasharray:none"
         id="path286"
         inkscape:connector-curvature="0" /></g><g
       id="g288"
       transform="translate(222.9897,173.9712)"><path
         d="m 0,0 c 1.299,-3.111 2.985,-7.045 4.271,-10.021 7.812,-18.083 19.617,-45.412 19.261,-60.751 -0.205,-8.824 -2.035,-21.729 -15.515,-31.869 -14.27,-10.732 -39.237,-16.175 -74.207,-16.175 l -17.656,0 -6.776,0 -17.655,0 c -34.972,0 -59.938,5.443 -74.208,16.175 -13.48,10.14 -15.31,23.045 -15.515,31.869 -0.356,15.339 11.45,42.668 19.261,60.751 1.286,2.976 2.972,6.909 4.271,10.019"
         style="fill:none;stroke:#373535;stroke-width:2.3499999;stroke-linecap:round;stroke-linejoin:miter;stroke-miterlimit:10;stroke-opacity:1;stroke-dasharray:none"
         id="path290"
         inkscape:connector-curvature="0" /></g><g
       id="g292"
       transform="translate(41.4463,182.853)"
       style="fill:#f58735;fill-opacity:1"><path
         d="m 0,0 c 0,-5.037 4.082,-9.119 9.115,-9.119 5.035,0 9.119,4.082 9.119,9.119 0,5.035 -4.084,9.117 -9.119,9.117 C 4.082,9.117 0,5.035 0,0 z"
         style="fill:#f58735;stroke:#373535;stroke-width:2.34999989999999981;stroke-linecap:round;stroke-linejoin:miter;stroke-miterlimit:10;stroke-opacity:1;stroke-dasharray:none;fill-opacity:1"
         id="path294"
         inkscape:connector-curvature="0" /></g><g
       id="g296"
       transform="translate(230.0659,182.853)"
       style="fill:#f58735;fill-opacity:1"><path
         d="m 0,0 c 0,-5.037 -4.081,-9.119 -9.116,-9.119 -5.035,0 -9.119,4.082 -9.119,9.119 0,5.035 4.084,9.117 9.119,9.117 C -4.081,9.117 0,5.035 0,0 z"
         style="fill:#f58735;stroke:#373535;stroke-width:2.34999989999999981;stroke-linecap:round;stroke-linejoin:miter;stroke-miterlimit:10;stroke-opacity:1;stroke-dasharray:none;fill-opacity:1"
         id="path298"
         inkscape:connector-curvature="0" /></g><g
       id="g300"
       transform="translate(224.1685,182.8511)"
       style="fill:#ffffff;fill-opacity:1"><path
         d="m 0,0 c 0,-1.778 -1.441,-3.219 -3.219,-3.219 -1.777,0 -3.22,1.441 -3.22,3.219 0,1.778 1.443,3.22 3.22,3.22 C -1.441,3.22 0,1.778 0,0 z"
         style="fill:#ffffff;stroke:#373535;stroke-width:1.89999998000000003;stroke-linecap:round;stroke-linejoin:miter;stroke-miterlimit:10;stroke-opacity:1;stroke-dasharray:none;fill-opacity:1"
         id="path302"
         inkscape:connector-curvature="0" /></g><g
       id="g304"
       transform="translate(53.7827,182.8511)"
       style="fill:#ffffff;fill-opacity:1"><path
         d="m 0,0 c 0,-1.778 -1.441,-3.219 -3.219,-3.219 -1.777,0 -3.22,1.441 -3.22,3.219 0,1.778 1.443,3.22 3.22,3.22 C -1.441,3.22 0,1.778 0,0 z"
         style="fill:#ffffff;stroke:#373535;stroke-width:1.89999998000000003;stroke-linecap:round;stroke-linejoin:miter;stroke-miterlimit:10;stroke-opacity:1;stroke-dasharray:none;fill-opacity:1"
         id="path306"
         inkscape:connector-curvature="0" /></g></g></svg>