<?xml version="1.0" encoding="UTF-8" standalone="no"?>
<!-- Created with Inkscape (http://www.inkscape.org/) -->

<svg
   xmlns:dc="http://purl.org/dc/elements/1.1/"
   xmlns:cc="http://creativecommons.org/ns#"
   xmlns:rdf="http://www.w3.org/1999/02/22-rdf-syntax-ns#"
   xmlns:svg="http://www.w3.org/2000/svg"
   xmlns="http://www.w3.org/2000/svg"
   xmlns:sodipodi="http://sodipodi.sourceforge.net/DTD/sodipodi-0.dtd"
   xmlns:inkscape="http://www.inkscape.org/namespaces/inkscape"
   id="svg2"
   version="1.1"
   inkscape:version="0.91 r13725"
   xml:space="preserve"
   width="321.70874"
   height="393.6225"
   viewBox="0 0 321.70874 393.6225"
   sodipodi:docname="DYALOG Elsinore 2019_Hammer alone_colour.ai.svg"
   inkscape:export-filename="/home/jason/Desktop/Dyalog 2019_Elsinore_Finished artwork/Dyalog 2019_Elsinore_Finished artwork/DYALOG Elsinore 2019_Hammer alone.colour.png"
   inkscape:export-xdpi="90"
   inkscape:export-ydpi="90"><metadata
     id="metadata8"><rdf:RDF><cc:Work
         rdf:about=""><dc:format>image/svg+xml</dc:format><dc:type
           rdf:resource="http://purl.org/dc/dcmitype/StillImage" /><dc:title></dc:title></cc:Work></rdf:RDF></metadata><defs
     id="defs6"><clipPath
       clipPathUnits="userSpaceOnUse"
       id="clipPath16"><path
         d="m 0,314.898 257.367,0 L 257.367,0 0,0 0,314.898 Z"
         id="path18"
         inkscape:connector-curvature="0" /></clipPath><clipPath
       clipPathUnits="userSpaceOnUse"
       id="clipPath56"><path
         d="m 0,314.898 257.367,0 L 257.367,0 0,0 0,314.898 Z"
         id="path58"
         inkscape:connector-curvature="0" /></clipPath><clipPath
       clipPathUnits="userSpaceOnUse"
       id="clipPath84"><path
         d="m 0,314.898 257.367,0 L 257.367,0 0,0 0,314.898 Z"
         id="path86"
         inkscape:connector-curvature="0" /></clipPath><clipPath
       clipPathUnits="userSpaceOnUse"
       id="clipPath98"><path
         d="m 0,314.898 257.367,0 L 257.367,0 0,0 0,314.898 Z"
         id="path100"
         inkscape:connector-curvature="0" /></clipPath><clipPath
       clipPathUnits="userSpaceOnUse"
       id="clipPath150"><path
         d="m 0,314.898 257.367,0 L 257.367,0 0,0 0,314.898 Z"
         id="path152"
         inkscape:connector-curvature="0" /></clipPath></defs><sodipodi:namedview
     pagecolor="#ffffff"
     bordercolor="#666666"
     borderopacity="1"
     objecttolerance="10"
     gridtolerance="10"
     guidetolerance="10"
     inkscape:pageopacity="0"
     inkscape:pageshadow="2"
     inkscape:window-width="1920"
     inkscape:window-height="1056"
     id="namedview4"
     showgrid="false"
     inkscape:zoom="2.3982369"
     inkscape:cx="208.04062"
     inkscape:cy="178.99404"
     inkscape:window-x="1920"
     inkscape:window-y="24"
     inkscape:window-maximized="1"
     inkscape:current-layer="g10" /><g
     id="g10"
     inkscape:groupmode="layer"
     inkscape:label="DYALOG Elsinore 2019_Hammer alone"
     transform="matrix(1.25,0,0,-1.25,0,393.6225)"><path
       style="fill:#ec7117;fill-rule:evenodd;stroke:none;stroke-width:0.80000001px;stroke-linecap:butt;stroke-linejoin:miter;stroke-opacity:1;fill-opacity:1"
       d="m 127.37279,30.192072 c 0,0 -26.88981,8.49152 -40.098838,14.152528 -13.209032,5.661016 -45.759857,18.162424 -50.949118,23.58756 -5.189263,5.425136 -4.009885,16.275408 -4.009885,16.275408 0,0 -0.943502,14.624288 -0.471751,16.275412 0.471751,1.65113 8.019768,1.65113 8.019768,1.65113 0,0 -2.358755,-0.9435 -2.358755,-3.066382 0,-2.12288 0,-19.577672 0.471751,-21.936424 0.471751,-2.358752 3.774008,-6.132768 3.774008,-6.132768 l 1.651129,-0.471744 1.887005,24.531056 c 0,0 1.179378,2.830504 3.538133,2.594624 2.358755,-0.235872 3.302257,-1.415248 3.066382,-3.066376 -0.235876,-1.651128 -0.471751,-8.963272 -0.471751,-8.963272 l 5.661013,-3.302256 0.707626,15.331904 c 0,0 0.471751,1.651136 3.302258,1.887008 2.830506,0.235872 3.066382,-2.358752 3.066382,-2.358752 0,0 -0.471751,-15.09604 -0.707627,-18.634168 -0.235875,-3.538136 -0.707626,-8.255648 -0.707626,-8.255648 l -11.557902,7.076264 -1.179378,-10.6144 24.295181,-10.37852 -0.471751,14.62428 -5.425138,2.830512 c 0,0 -1.887004,1.887 -1.179377,3.302256 0.707627,1.415256 1.651129,3.538136 2.594631,3.302256 0.943502,-0.235872 4.481635,-1.887 4.481635,-1.887 l -0.471751,26.65394 7.076268,0 0,-51.420876 42.929348,-16.511288 c 0,0 1.887,-1.179376 3.774,-1.179376 1.88701,0 10.14265,2.830504 12.50141,3.538136 2.35875,0.707624 15.56779,6.36864 15.56779,6.36864 l -3.77401,18.162416 -4.00989,-1.887008 c 0,0 -2.12288,-2.12288 -4.00988,1.415256 -1.88701,3.538128 1.17938,4.24576 1.17938,4.24576 l 5.66101,3.774008 -4.95339,24.766928 c 0,0 -0.47174,3.302256 2.59463,3.774004 3.06639,0.47176 3.77401,-2.594628 3.77401,-2.594628 l 4.95339,-22.87992 2.59463,1.651128 c 0,0 2.83051,0.471752 3.77401,-1.887008 0.9435,-2.358752 0,-4.00988 -1.41525,-4.717512 -1.41526,-0.707624 -3.77401,-2.358752 -3.77401,-2.358752 l 4.24576,-18.870048 12.26553,5.189264 -9.6709,5.189264 c 0,0 -2.12288,1.179376 -1.88701,2.594632 0.23588,1.415248 11.55791,14.62428 11.55791,14.62428 l -4.24576,21.936424 c 0,0 0.47175,2.358756 3.06638,3.066386 2.59463,0.70762 3.77401,-2.830506 3.77401,-2.830506 l 4.00988,-21.464672 9.67089,-9.435024 c 0,0 0.70764,-1.415256 -0.23587,-3.302256 -0.9435,-1.887008 -4.48163,-1.415256 -4.48163,-1.415256 l -5.66102,-6.840392 21.46468,9.199144 -2.83051,11.793784 -3.30225,-3.066384 c 0,0 -2.35876,-1.887008 -4.71752,0.471752 -2.35876,2.358752 0.47176,4.717504 0.47176,4.717504 l 3.30225,3.774016 -7.07626,4.481632 c 0,0 -1.88701,2.12288 -0.70763,4.481632 1.17938,2.35876 4.48164,0.943504 4.48164,0.943504 l 4.24576,-2.358752 -3.77401,15.567784 8.01977,-0.47175 3.30225,-15.096034 3.06639,2.12288 c 0,0 1.65112,0.707624 3.30225,-0.707632 1.65113,-1.415248 2.12288,-3.774008 0.70763,-4.953384 -1.41525,-1.179376 -3.77401,-2.594632 -3.77401,-2.594632 l 6.84039,-4.481632 c 0,0 2.12288,-0.943504 0.9435,-3.538136 -1.17937,-2.594632 -3.53813,-2.358752 -4.71751,-1.887 -1.17937,0.471752 -3.06638,1.887 -3.06638,1.887 l 1.88701,-7.783888 c 0,0 4.00988,1.179376 5.42513,2.358752 1.41525,1.179376 3.77401,3.066384 4.24576,5.896888 0.47175,2.830504 0.23587,17.926544 0.23587,17.926544 0,0 0.47176,2.358752 0,4.24576 -0.47175,1.887004 -2.8305,3.302254 -2.8305,3.302254 l 6.60451,2.35875 c 0,0 2.59463,-3.53812 2.35876,-7.312132 -0.23588,-3.774016 -0.70763,-18.870048 -0.70763,-18.870048 0,0 1.17938,-2.594632 -0.70762,-6.36864 -1.887,-3.774008 -15.80367,-11.557896 -20.2853,-13.209032 -4.48163,-1.651128 -58.73301,-24.059304 -67.69628,-26.653936 -8.96327,-2.594624 -8.01977,-1.887 -8.01977,-1.887 z"
       id="path4322"
       inkscape:connector-curvature="0" /><g
       id="g48"
       transform="translate(175.5389,60.6123)"
       style="fill:#ffffff;fill-opacity:1"><path
         d="M 0,0 -3.637,2.021 2.852,9.756 5.602,7.022 0,0 Z"
         style="fill:#ffffff;stroke:#231f20;stroke-width:2.3499999;stroke-linecap:butt;stroke-linejoin:round;stroke-miterlimit:10;stroke-dasharray:none;stroke-opacity:1;fill-opacity:1"
         id="path50"
         inkscape:connector-curvature="0" /></g><path
       style="fill:#ec7117;fill-rule:evenodd;stroke:none;stroke-width:0.80000001px;stroke-linecap:butt;stroke-linejoin:miter;stroke-opacity:1;fill-opacity:1"
       d="m 152.61147,207.57048 -49.29798,-0.9435 c 0,0 1.17937,-21.93643 -7.312146,-47.88274 -8.49152,-25.94631 -12.5014,-41.27822 -14.86016,-43.16522 -2.358754,-1.887 -3.538131,-4.48164 -17.218913,-5.66102 -13.680781,-1.17938 -25.946309,-0.9435 -29.012691,-3.53813 -3.066382,-2.59463 -2.594631,-6.13277 -2.594631,-6.13277 l 8.49152,1.88701 5.189261,0.70763 165.58463,0.23588 4.95338,-1.17939 7.31215,-0.23587 c 0,0 -0.23587,2.35875 -2.12288,3.77401 -1.88701,1.41525 -3.53814,2.35875 -7.54802,2.8305 -4.00989,0.47175 -26.41806,1.17939 -29.01269,2.59463 -2.59463,1.41526 -8.49152,1.17938 -9.90677,5.66102 -1.41526,4.48163 -12.73728,29.95619 -16.27542,47.88274 -3.53813,17.92653 -6.36864,39.62708 -6.36864,43.16522 z"
       id="path4320"
       inkscape:connector-curvature="0" /><g
       id="g12"
       style="fill:none"><g
         id="g14"
         clip-path="url(#clipPath16)"
         style="fill:none"><g
           id="g20"
           transform="translate(153.0916,206.6416)"
           style="fill:none"><path
             d="m 0,0 c 0.215,-26.043 12.846,-69.57 22.403,-90.373 3.138,-6.828 21.805,-6.893 35.715,-7.91 11.047,-0.807 13.153,-2.349 13.347,-12.754 0.087,-4.631 -0.06,-7.96 -0.208,-16.029 -0.013,-0.747 -0.276,-3.728 -0.442,-4.526 -1.36,-6.52 -4.464,-7.567 -12.018,-11.775 -15.951,-8.887 -79.965,-33.159 -82.498,-33.159 l -2.221,0 c -2.534,0 -66.547,24.272 -82.498,33.159 -7.555,4.208 -10.658,5.255 -12.018,11.775 -0.166,0.798 -0.429,3.779 -0.442,4.526 -0.148,8.069 -0.295,11.398 -0.208,16.029 0.194,10.405 2.3,11.947 13.347,12.754 13.909,1.017 32.577,1.082 35.714,7.91 9.558,20.803 22.188,64.33 22.403,90.373"
             style="fill:none;fill-opacity:1;fill-rule:nonzero;stroke:#231f20;stroke-width:2.3499999;stroke-linecap:butt;stroke-linejoin:miter;stroke-miterlimit:10;stroke-dasharray:none;stroke-opacity:1"
             id="path22"
             inkscape:connector-curvature="0" /></g><g
           id="g24"
           transform="translate(128.2777,160.1465)"
           style="fill:none"><path
             d="m 0,0 c -3.444,0 -20.766,-45.417 -18.485,-48.647 1.9,-2.692 9.658,-2.375 18.208,-2.352"
             style="fill:none;stroke:#231f20;stroke-width:2.3499999;stroke-linecap:round;stroke-linejoin:miter;stroke-miterlimit:10;stroke-dasharray:none;stroke-opacity:1"
             id="path26"
             inkscape:connector-curvature="0" /></g><g
           id="g28"
           transform="translate(128.286,182.5903)"
           style="fill:none"><path
             d="m 0,0 c -4.157,-0.678 -17.177,-35.045 -24.352,-56.208 -2.882,-8.5 -4.901,-17.1 -4.901,-17.1"
             style="fill:none;stroke:#231f20;stroke-width:2.3499999;stroke-linecap:round;stroke-linejoin:miter;stroke-miterlimit:10;stroke-dasharray:none;stroke-opacity:1"
             id="path30"
             inkscape:connector-curvature="0" /></g><g
           id="g32"
           transform="translate(89.098,109.5986)"
           style="fill:none"><path
             d="m 0,0 c 0,0 3.457,11.688 8.772,26.125 9.247,25.117 23.113,59.938 30.275,65.944"
             style="fill:none;stroke:#231f20;stroke-width:2.3499999;stroke-linecap:round;stroke-linejoin:miter;stroke-miterlimit:10;stroke-dasharray:none;stroke-opacity:1"
             id="path34"
             inkscape:connector-curvature="0" /></g><g
           id="g36"
           transform="translate(128.0399,160.1465)"
           style="fill:none"><path
             d="M 0,0 C 3.444,0 20.767,-45.417 18.486,-48.647 16.585,-51.339 8.827,-51.022 0.277,-50.999"
             style="fill:none;stroke:#231f20;stroke-width:2.3499999;stroke-linecap:round;stroke-linejoin:miter;stroke-miterlimit:10;stroke-dasharray:none;stroke-opacity:1"
             id="path38"
             inkscape:connector-curvature="0" /></g><g
           id="g40"
           transform="translate(128.0316,182.5903)"
           style="fill:none"><path
             d="m 0,0 c 4.158,-0.678 17.177,-35.045 24.352,-56.208 2.882,-8.5 4.901,-17.1 4.901,-17.1"
             style="fill:none;stroke:#231f20;stroke-width:2.3499999;stroke-linecap:round;stroke-linejoin:miter;stroke-miterlimit:10;stroke-dasharray:none;stroke-opacity:1"
             id="path42"
             inkscape:connector-curvature="0" /></g><g
           id="g44"
           transform="translate(167.2196,109.5986)"
           style="fill:none"><path
             d="m 0,0 c 0,0 -3.457,11.688 -8.771,26.125 -9.248,25.117 -23.114,59.938 -30.276,65.944"
             style="fill:none;stroke:#231f20;stroke-width:2.3499999;stroke-linecap:round;stroke-linejoin:miter;stroke-miterlimit:10;stroke-dasharray:none;stroke-opacity:1"
             id="path46"
             inkscape:connector-curvature="0" /></g></g></g><path
       style="fill:#ec7117;fill-rule:evenodd;stroke:none;stroke-width:0.80000001px;stroke-linecap:butt;stroke-linejoin:miter;stroke-opacity:1;fill-opacity:1"
       d="m 137.75131,95.883408 c 0,0 3.65607,-26.536 2.94845,-34.319888 -0.70762,-7.783896 -3.53814,-15.803664 -8.96327,-17.690664 -5.42514,-1.887008 -13.44491,1.651128 -15.44985,4.00988 -2.00494,2.35876 -6.60451,12.501408 -6.72245,14.978096 -0.11794,2.476696 0.9435,6.486576 2.35875,7.312144 1.41526,0.82556 8.25564,6.250704 8.25564,6.250704 l -11.32202,14.152528 c 0,0 -2.47669,1.533192 0.47175,4.48164 2.94845,2.94844 4.71751,-0.353816 4.71751,-0.353816 L 125.8396,79.608 c 0,0 1.53319,-0.707632 1.06144,-3.4202 -0.47175,-2.712568 -2.71257,-5.425136 -3.30226,-5.778952 -0.58968,-0.353808 -7.07626,-5.3072 -7.07626,-5.3072 0,0 0.35381,-6.840384 2.35875,-9.435016 2.00495,-2.594632 3.77401,-5.778952 8.72739,-5.071328 4.9534,0.707632 5.89689,6.722456 5.89689,6.722456 0,0 0.94351,7.076264 0.70763,8.609456 -0.23588,1.533192 -3.18432,28.069192 -3.18432,28.069192 0,0 0.58969,3.656064 2.59464,3.891944 2.00493,0.235872 4.12781,-2.004944 4.12781,-2.004944 z"
       id="path4324"
       inkscape:connector-curvature="0" /><path
       style="fill:#ec7117;fill-rule:evenodd;stroke:none;stroke-width:0.80000001px;stroke-linecap:butt;stroke-linejoin:miter;stroke-opacity:1;fill-opacity:1"
       d="m 97.888352,75.833992 -2.004944,6.13276 c 0,0 -2.004944,1.887008 -4.24576,1.06144 C 89.396832,82.202624 89.632704,79.608 89.632704,79.608 l 1.887008,-6.722456 -6.36864,-2.594632 c 0,0 -1.651128,-2.004944 -1.179376,-3.891944 0.471744,-1.887008 3.656064,-2.476696 3.656064,-2.476696 l 5.425144,2.240816 0.943496,-2.830504 c 0,0 1.29732,-2.712568 3.774008,-2.004944 2.476692,0.707632 2.712572,3.302264 2.476692,4.48164 -0.23587,1.179376 -0.825556,3.302256 -0.825556,3.302256 l 10.142646,4.363696 c 0,0 2.59463,-0.235872 1.29731,3.774008 -1.29731,4.009888 -4.00988,2.35876 -4.00988,2.35876 z"
       id="path4326"
       inkscape:connector-curvature="0" /><g
       id="g52"><g
         id="g54"
         clip-path="url(#clipPath56)"><g
           id="g60"
           transform="translate(127.1551,75.2852)"><path
             d="M 0,0 0.009,0 0,0 Z m 0.112,-31.579 c -1.902,0 -3.89,0.414 -5.873,1.25 -8.417,3.548 -11.169,14.166 -11.519,17.958 -0.516,5.597 3.29,8.327 6.348,10.521 l 0.364,0.262 c 0.368,0.265 0.746,0.524 1.123,0.78 0.695,0.474 1.82,1.242 2.157,1.684 -0.043,0.115 -0.138,0.321 -0.346,0.627 -0.686,1.009 -6.868,8.865 -10.604,13.58 -1.14,1.439 -0.898,3.53 0.542,4.67 1.44,1.142 3.53,0.898 4.67,-0.541 1.005,-1.268 9.843,-12.43 10.89,-13.97 4.235,-6.227 -1.229,-9.953 -3.563,-11.544 -0.329,-0.225 -0.661,-0.452 -0.984,-0.683 l -0.372,-0.268 c -3.012,-2.16 -3.75,-2.917 -3.603,-4.507 0.177,-1.917 2.065,-10.159 7.48,-12.441 1.164,-0.49 4.115,-1.447 6.386,0.248 1.859,1.388 4.755,5.709 3.268,19.06 C 5.419,4.595 4.681,11.395 4.28,15.32 c -0.161,1.583 -0.242,2.453 -0.282,2.927 -0.28,3.364 2.051,3.991 2.772,4.102 1.762,0.273 3.428,-0.904 3.777,-2.649 0.05,-0.248 0.071,-0.494 0.064,-0.736 0.059,-0.771 0.408,-4.568 2.474,-23.12 1.414,-12.695 -0.57,-21.148 -5.898,-25.126 -2.041,-1.525 -4.478,-2.297 -7.075,-2.297 z"
             style="fill:none;stroke:#231f20;stroke-width:2.3499999;stroke-linecap:butt;stroke-linejoin:miter;stroke-miterlimit:10;stroke-dasharray:none;stroke-opacity:1"
             id="path62"
             inkscape:connector-curvature="0" /></g><g
           id="g64"
           transform="translate(74.4066,57.1309)"><path
             d="m 0,0 -0.067,13.306 -5.532,3.24 c -1.585,0.929 -2.117,2.966 -1.189,4.55 0.929,1.585 2.964,2.116 4.55,1.189 l 2.127,-1.245 c 0,0 -0.109,22.346 -0.109,22.779 0,0.564 -0.267,1.959 -1.692,1.959 -0.644,0 -17.178,-0.014 -21.603,-0.014 -1.048,0 -5.464,-0.038 -7.289,-0.217 -6.053,-0.593 -6.058,-2.744 -6.058,-10.25 0,-3.899 0.06,-5.973 0.208,-12.765 0.014,-0.629 0.156,-2.73 0.512,-3.947 0.74,-2.526 2.331,-4.134 5.029,-5.737 l 0.196,0.126 1.993,24.016 c 0.153,1.83 1.772,3.186 3.59,3.037 1.83,-0.152 3.189,-1.759 3.037,-3.589 l -0.691,-8.291 5.55,-3.461 0.858,14.598 c 0.108,1.833 1.67,3.227 3.515,3.124 1.833,-0.108 3.232,-1.681 3.124,-3.514 l -1.517,-25.777 -12.151,7.579 -0.826,-9.909 c -0.036,-0.433 0.132,-1.351 0.881,-1.702 4.858,-2.278 13.62,-5.974 23.528,-10.013 L 0,0 Z"
             style="fill:none;stroke:#231f20;stroke-width:2.3499999;stroke-linecap:butt;stroke-linejoin:round;stroke-miterlimit:10;stroke-dasharray:none;stroke-opacity:1"
             id="path66"
             inkscape:connector-curvature="0" /></g><g
           id="g68"
           transform="translate(110.6747,77.377)"><path
             d="m 0,0 c -0.721,1.689 -2.676,2.474 -4.363,1.753 l -8.707,-3.717 -1.512,5.384 c -0.495,1.769 -2.329,2.798 -4.1,2.303 -1.767,-0.496 -2.798,-2.332 -2.302,-4.1 l 1.747,-6.221 -5.432,-2.318 c -1.689,-0.721 -2.474,-2.675 -1.753,-4.363 0.539,-1.264 1.768,-2.021 3.06,-2.021 0.435,0 0.878,0.086 1.303,0.268 l 4.634,1.978 0.716,-2.55 c 0.412,-1.468 1.747,-2.427 3.2,-2.427 0.297,0 0.6,0.04 0.9,0.124 1.768,0.497 2.799,2.333 2.302,4.1 l -0.95,3.386 9.505,4.058 C -0.063,-3.643 0.722,-1.688 0,0 Z"
             style="fill:none;stroke:#231f20;stroke-width:2.3499999;stroke-linecap:butt;stroke-linejoin:miter;stroke-miterlimit:10;stroke-dasharray:none;stroke-opacity:1"
             id="path70"
             inkscape:connector-curvature="0" /></g><g
           id="g72"
           transform="translate(200.0619,102.8936)"><path
             d="m 0,0 c 2.152,0 3.971,0.001 5.364,0.001 13.339,0 13.347,-0.698 13.347,-10.467 0,-3.899 -0.06,-5.972 -0.208,-12.764 -0.014,-0.629 -0.301,-3.29 -0.512,-3.948 -1.156,-3.607 -3.921,-5.358 -9.25,-7.924 l -0.09,0.044 -2.047,8.368 3.321,-1.926 c 0.525,-0.306 1.098,-0.45 1.665,-0.45 1.147,0 2.263,0.594 2.879,1.657 0.922,1.589 0.381,3.623 -1.207,4.544 l -6.612,3.836 3.441,3.131 c 1.358,1.235 1.457,3.338 0.222,4.697 -1.235,1.358 -3.338,1.457 -4.697,0.222 L 3.275,-13.109 0.03,-0.147 0,0 Z"
             style="fill:none;stroke:#231f20;stroke-width:2.3499999;stroke-linecap:butt;stroke-linejoin:round;stroke-miterlimit:10;stroke-dasharray:none;stroke-opacity:1"
             id="path74"
             inkscape:connector-curvature="0" /></g><g
           id="g76"
           transform="translate(128.3963,102.8516)"><path
             d="m 0,0 c 5.292,0 43.162,0.028 64.882,0.039 0,0 0.118,-0.49 0.185,-0.761 l 3.024,-12.334 -4.657,2.702 c -1.588,0.921 -3.624,0.381 -4.545,-1.208 -0.922,-1.588 -0.381,-3.623 1.208,-4.544 l 7.024,-4.075 -4.091,-3.722 c -1.359,-1.237 -1.458,-3.339 -0.222,-4.698 0.777,-0.854 1.898,-1.21 2.96,-1.049 0.627,0.094 1.233,0.37 1.737,0.828 l 3.639,3.31 2.948,-12.022 c 0.067,-0.197 0.038,-0.408 0.038,-0.408 -5.742,-2.568 -12.897,-5.554 -22.414,-9.412 l -0.327,-0.118 6.14,7.589 c 0.56,-0.38 1.208,-0.573 1.858,-0.573 0.855,0 1.709,0.328 2.359,0.981 1.295,1.303 1.288,3.409 -0.015,4.703 l -8.768,8.712 -4.084,21.609 c -0.34,1.804 -2.078,2.987 -3.884,2.65 -1.805,-0.341 -2.991,-2.081 -2.65,-3.885 l 3.944,-20.868 -10.468,-12.478 c -0.638,-0.76 -0.903,-1.765 -0.722,-2.741 0.18,-0.976 0.788,-1.821 1.655,-2.302 l 9.767,-5.386 -0.565,-0.208 c -4.453,-1.795 -6.52,-2.622 -10.885,-4.344 l -1.267,-0.514 c -0.277,1.028 -0.308,0.992 -0.457,1.759 l -3.622,17.54 4.027,2.207 c 1.611,0.882 2.201,2.903 1.319,4.514 -0.883,1.611 -2.903,2.202 -4.513,1.318 l -2.164,-1.185 -4.375,22.534 c -0.35,1.802 -2.098,2.978 -3.898,2.631 -1.802,-0.351 -2.98,-2.096 -2.63,-3.898 l 4.78,-24.622 -5.37,-2.941 c -1.61,-0.883 -2.2,-2.903 -1.318,-4.514 0.604,-1.104 1.743,-1.728 2.918,-1.728 0.541,0 1.088,0.132 1.595,0.41 l 3.506,1.92 3.217,-15.453 c 0.2,-1.03 0.493,-3.085 0.493,-3.085 -14.883,-5.837 -25.588,-9.758 -26.758,-9.758 l -1.583,0 c -1.627,0 -45.135,17.001 -45.135,17.001 -1.514,1.01 -1.336,3.206 -1.366,3.622 -0.059,1.247 -0.287,44.215 -0.089,45.165 0,0 0.356,1.254 1.702,1.254 C -44.738,0.164 -4.5,0 -0.475,0 L 0,0 Z"
             style="fill:none;stroke:#231f20;stroke-width:2.3499999;stroke-linecap:butt;stroke-linejoin:round;stroke-miterlimit:10;stroke-dasharray:none;stroke-opacity:1"
             id="path78"
             inkscape:connector-curvature="0" /></g></g></g><g
       id="g80"><g
         id="g82"
         clip-path="url(#clipPath84)"><g
           id="g88"
           transform="translate(135.1615,255.2588)"><path
             d="m 0,0 c 4.331,5.004 2.067,11.718 -0.072,15.104 4.384,5.344 1.644,11.444 0.716,13.492 -0.091,0.202 -0.166,0.366 -0.214,0.487 -0.649,1.662 -4.57,2.073 -6.226,2.172 -1.776,0.105 -5.767,0.112 -7.599,-1.725 l -0.016,0.016 c -5.005,-4.998 -2.727,-12.027 -0.525,-15.586 -4.281,-4.948 -2.117,-11.571 0,-14.993 -4.282,-4.949 -2.117,-11.571 0,-14.993 -4.32,-4.993 -2.077,-11.687 0.057,-15.08 -4.43,-5.234 -1.746,-12.299 0.404,-15.421 l 1.937,1.332 c -0.206,0.301 -3.149,1.196 0.684,6.335 l 8.619,-6.977 1.101,0.875 0.609,-0.61 c 5.005,4.998 2.727,12.027 0.525,15.586 4.282,4.948 2.117,11.571 0,14.993 C 4.282,-10.045 2.117,-3.422 0,0"
             style="fill:#ffffff;fill-opacity:1;fill-rule:nonzero;stroke:none"
             id="path90"
             inkscape:connector-curvature="0" /></g><path
           d="m 140.765,216.315 -26.125,0 0,60.875 26.125,0 0,-60.875 z"
           style="fill:#ffffff;fill-opacity:1;fill-rule:nonzero;stroke:none"
           id="path92"
           inkscape:connector-curvature="0" /></g></g><path
       style="fill:#ec7117;fill-rule:evenodd;stroke:#000000;stroke-width:0.80000001px;stroke-linecap:butt;stroke-linejoin:miter;stroke-opacity:1;fill-opacity:1"
       d="m 134.43209,284.37558 c 0,0 -10.67451,1.33431 -11.50845,0 -0.83395,-1.33432 -2.83542,-5.00368 -2.66863,-7.00515 0.16679,-2.00147 1.16753,-6.33799 1.66789,-7.00514 0.50037,-0.66716 1.00074,-1.33432 1.00074,-1.33432 0,0 -2.66863,-1.5011 -2.83542,-5.50404 -0.16679,-4.00294 2.50184,-9.50699 2.50184,-9.50699 0,0 -2.66863,-3.50257 -2.66863,-5.83762 0,-2.33505 1.66789,-7.33872 2.16826,-7.83909 0.50037,-0.50037 0.66716,-1.5011 0.66716,-1.5011 0,0 -2.66863,-1.00074 -2.66863,-6.67157 0,-5.67083 2.83542,-8.17267 2.83542,-8.17267 0,0 -2.16826,-2.00147 -2.33506,-3.0022 -0.16678,-1.00074 -0.50036,-3.83615 -0.50036,-3.83615 l 16.34534,-0.1668 c 0,0 -0.16679,4.6701 -1.00074,5.50404 -0.83394,0.83396 -2.16825,3.33579 -2.16825,3.33579 0,0 3.83615,2.16826 3.33578,6.33799 -0.50037,4.16973 -3.00221,8.33946 -3.00221,8.33946 0,0 3.169,1.5011 3.00221,7.00515 -0.16679,5.50404 -3.169,8.33946 -3.169,8.33946 0,0 3.00221,0.83394 3.33579,6.67156 0.33358,5.83763 -3.0022,8.00589 -3.0022,8.00589 0,0 2.50183,4.5033 2.66862,6.50477 0.16679,2.00147 -2.00147,7.33873 -2.00147,7.33873 z"
       id="path4330"
       inkscape:connector-curvature="0" /><g
       id="g94"
       style="fill:none;fill-opacity:1"><g
         id="g96"
         clip-path="url(#clipPath98)"
         style="fill:none;fill-opacity:1"><g
           id="g102"
           transform="translate(122.5404,284.3384)"
           style="fill:none;fill-opacity:1"><path
             d="m 0,0 11.326,-14.238 c 0,0 5.936,-8.616 -0.06,-14.604"
             style="fill:none;stroke:#231f20;stroke-width:2.3499999;stroke-linecap:butt;stroke-linejoin:miter;stroke-miterlimit:10;stroke-dasharray:none;stroke-opacity:1;fill-opacity:1"
             id="path104"
             inkscape:connector-curvature="0" /></g><g
           id="g106"
           transform="translate(122.2323,283.4839)"
           style="fill:none;fill-opacity:1"><path
             d="m 0,0 c 1.635,3.049 11.72,1.827 12.265,0.431 0.541,-1.387 4.27,-7.852 -0.691,-13.267"
             style="fill:none;stroke:#231f20;stroke-width:2.3499999;stroke-linecap:butt;stroke-linejoin:miter;stroke-miterlimit:10;stroke-dasharray:none;stroke-opacity:1;fill-opacity:1"
             id="path108"
             inkscape:connector-curvature="0" /></g><g
           id="g110"
           transform="translate(122.5404,269.3457)"
           style="fill:none;fill-opacity:1"><path
             d="m 0,0 11.326,-14.238 c 0,0 5.936,-8.616 -0.06,-14.604"
             style="fill:none;stroke:#231f20;stroke-width:2.3499999;stroke-linecap:butt;stroke-linejoin:miter;stroke-miterlimit:10;stroke-dasharray:none;stroke-opacity:1;fill-opacity:1"
             id="path112"
             inkscape:connector-curvature="0" /></g><g
           id="g114"
           transform="translate(133.8465,255.1313)"
           style="fill:none;fill-opacity:1"><path
             d="m 0,0 -11.326,14.239 c 0,0 -5.936,8.615 0.06,14.603"
             style="fill:none;stroke:#231f20;stroke-width:2.3499999;stroke-linecap:butt;stroke-linejoin:miter;stroke-miterlimit:10;stroke-dasharray:none;stroke-opacity:1;fill-opacity:1"
             id="path116"
             inkscape:connector-curvature="0" /></g><g
           id="g118"
           transform="translate(122.5404,254.3525)"
           style="fill:none;fill-opacity:1"><path
             d="m 0,0 11.326,-14.238 c 0,0 5.936,-8.616 -0.06,-14.604"
             style="fill:none;stroke:#231f20;stroke-width:2.3499999;stroke-linecap:butt;stroke-linejoin:miter;stroke-miterlimit:10;stroke-dasharray:none;stroke-opacity:1;fill-opacity:1"
             id="path120"
             inkscape:connector-curvature="0" /></g><g
           id="g122"
           transform="translate(133.8465,240.1387)"
           style="fill:none;fill-opacity:1"><path
             d="m 0,0 -11.326,14.238 c 0,0 -5.936,8.616 0.06,14.604"
             style="fill:none;stroke:#231f20;stroke-width:2.3499999;stroke-linecap:butt;stroke-linejoin:miter;stroke-miterlimit:10;stroke-dasharray:none;stroke-opacity:1;fill-opacity:1"
             id="path124"
             inkscape:connector-curvature="0" /></g><g
           id="g126"
           transform="translate(122.5404,239.3599)"
           style="fill:none;fill-opacity:1"><path
             d="m 0,0 11.326,-14.238 c 0,0 5.936,-8.616 -0.06,-14.604"
             style="fill:none;stroke:#231f20;stroke-width:2.3499999;stroke-linecap:butt;stroke-linejoin:miter;stroke-miterlimit:10;stroke-dasharray:none;stroke-opacity:1;fill-opacity:1"
             id="path128"
             inkscape:connector-curvature="0" /></g><g
           id="g130"
           transform="translate(133.8465,225.146)"
           style="fill:none;fill-opacity:1"><path
             d="m 0,0 -11.326,14.238 c 0,0 -5.936,8.616 0.06,14.604"
             style="fill:none;stroke:#231f20;stroke-width:2.3499999;stroke-linecap:butt;stroke-linejoin:miter;stroke-miterlimit:10;stroke-dasharray:none;stroke-opacity:1;fill-opacity:1"
             id="path132"
             inkscape:connector-curvature="0" /></g><g
           id="g134"
           transform="translate(122.5404,224.3667)"
           style="fill:none;fill-opacity:1"><path
             d="M 0,0 8.635,-10.855"
             style="fill:none;stroke:#231f20;stroke-width:2.3499999;stroke-linecap:butt;stroke-linejoin:miter;stroke-miterlimit:10;stroke-dasharray:none;stroke-opacity:1;fill-opacity:1"
             id="path136"
             inkscape:connector-curvature="0" /></g><g
           id="g138"
           transform="translate(133.8465,210.1528)"
           style="fill:none;fill-opacity:1"><path
             d="m 0,0 -11.326,14.238 c 0,0 -5.936,8.616 0.06,14.604"
             style="fill:none;stroke:#231f20;stroke-width:2.3499999;stroke-linecap:butt;stroke-linejoin:miter;stroke-miterlimit:10;stroke-dasharray:none;stroke-opacity:1;fill-opacity:1"
             id="path140"
             inkscape:connector-curvature="0" /></g><g
           id="g142"
           transform="translate(122.6551,209.3984)"
           style="fill:none;fill-opacity:1"><path
             d="M 0,0 C 0,0 -5.936,8.616 0.061,14.604"
             style="fill:none;stroke:#231f20;stroke-width:2.3499999;stroke-linecap:butt;stroke-linejoin:miter;stroke-miterlimit:10;stroke-dasharray:none;stroke-opacity:1;fill-opacity:1"
             id="path144"
             inkscape:connector-curvature="0" /></g></g></g><g
       id="g146"
       style="fill:#ec7117;fill-opacity:1"><g
         id="g148"
         clip-path="url(#clipPath150)"
         style="fill:#ec7117;fill-opacity:1"><g
           id="g154"
           transform="translate(103.4422,284.3594)"
           style="fill:#ec7117;fill-opacity:1"><path
             d="m 0,0 c -2.633,0 -4.769,-1.016 -4.769,-3.298 l 0,-26.114 0,-8.509 0,-26.114 c 0,-2.282 2.136,-3.298 4.769,-3.298 2.634,0 4.769,1.016 4.769,3.298 l 0,26.707 0,7.323 0,26.707 C 4.769,-1.016 2.634,0 0,0"
             style="fill:#ec7117;fill-opacity:1;fill-rule:nonzero;stroke:none"
             id="path156"
             inkscape:connector-curvature="0" /></g><g
           id="g158"
           transform="translate(103.4422,284.3594)"
           style="fill:#ec7117;fill-opacity:1"><path
             d="m 0,0 c -2.633,0 -4.769,-1.016 -4.769,-3.298 l 0,-26.114 0,-8.509 0,-26.114 c 0,-2.282 2.136,-3.298 4.769,-3.298 2.634,0 4.769,1.016 4.769,3.298 l 0,26.707 0,7.323 0,26.707 C 4.769,-1.016 2.634,0 0,0 Z"
             style="fill:#ec7117;stroke:#231f20;stroke-width:2.3499999;stroke-linecap:butt;stroke-linejoin:miter;stroke-miterlimit:10;stroke-dasharray:none;stroke-opacity:1;fill-opacity:1"
             id="path160"
             inkscape:connector-curvature="0" /></g><g
           id="g162"
           transform="translate(112.972,284.3594)"
           style="fill:#ec7117;fill-opacity:1"><path
             d="m 0,0 c -2.633,0 -4.769,-1.016 -4.769,-3.298 l 0,-26.114 0,-8.509 0,-26.114 c 0,-2.282 2.136,-3.298 4.769,-3.298 2.633,0 4.769,1.016 4.769,3.298 l 0,26.707 0,7.323 0,26.707 C 4.769,-1.016 2.633,0 0,0"
             style="fill:#ec7117;fill-opacity:1;fill-rule:nonzero;stroke:none"
             id="path164"
             inkscape:connector-curvature="0" /></g><g
           id="g166"
           transform="translate(112.972,284.3594)"
           style="fill:#ec7117;fill-opacity:1"><path
             d="m 0,0 c -2.633,0 -4.769,-1.016 -4.769,-3.298 l 0,-26.114 0,-8.509 0,-26.114 c 0,-2.282 2.136,-3.298 4.769,-3.298 2.633,0 4.769,1.016 4.769,3.298 l 0,26.707 0,7.323 0,26.707 C 4.769,-1.016 2.633,0 0,0 Z"
             style="fill:#ec7117;stroke:#231f20;stroke-width:2.3499999;stroke-linecap:butt;stroke-linejoin:miter;stroke-miterlimit:10;stroke-dasharray:none;stroke-opacity:1;fill-opacity:1"
             id="path168"
             inkscape:connector-curvature="0" /></g><g
           id="g170"
           transform="translate(152.994,284.3594)"
           style="fill:#ec7117;fill-opacity:1"><path
             d="m 0,0 c -2.633,0 -4.769,-1.016 -4.769,-3.298 l 0,-26.707 0,-7.323 0,-26.707 c 0,-2.282 2.136,-3.298 4.769,-3.298 2.633,0 4.769,1.016 4.769,3.298 l 0,26.114 0,8.509 0,26.114 C 4.769,-1.016 2.633,0 0,0"
             style="fill:#ec7117;fill-opacity:1;fill-rule:nonzero;stroke:none"
             id="path172"
             inkscape:connector-curvature="0" /></g><g
           id="g174"
           transform="translate(152.994,284.3594)"
           style="fill:#ec7117;fill-opacity:1"><path
             d="m 0,0 c -2.633,0 -4.769,-1.016 -4.769,-3.298 l 0,-26.707 0,-7.323 0,-26.707 c 0,-2.282 2.136,-3.298 4.769,-3.298 2.633,0 4.769,1.016 4.769,3.298 l 0,26.114 0,8.509 0,26.114 C 4.769,-1.016 2.633,0 0,0 Z"
             style="fill:#ec7117;stroke:#231f20;stroke-width:2.3499999;stroke-linecap:butt;stroke-linejoin:miter;stroke-miterlimit:10;stroke-dasharray:none;stroke-opacity:1;fill-opacity:1"
             id="path176"
             inkscape:connector-curvature="0" /></g><g
           id="g178"
           transform="translate(143.4642,284.3594)"
           style="fill:#ec7117;fill-opacity:1"><path
             d="m 0,0 c -2.633,0 -4.769,-1.016 -4.769,-3.298 l 0,-26.707 0,-7.323 0,-26.707 c 0,-2.282 2.136,-3.298 4.769,-3.298 2.634,0 4.769,1.016 4.769,3.298 l 0,26.114 0,8.509 0,26.114 C 4.769,-1.016 2.634,0 0,0"
             style="fill:#ec7117;fill-opacity:1;fill-rule:nonzero;stroke:none"
             id="path180"
             inkscape:connector-curvature="0" /></g><g
           id="g182"
           transform="translate(143.4642,284.3594)"
           style="fill:#ec7117;fill-opacity:1"><path
             d="m 0,0 c -2.633,0 -4.769,-1.016 -4.769,-3.298 l 0,-26.707 0,-7.323 0,-26.707 c 0,-2.282 2.136,-3.298 4.769,-3.298 2.634,0 4.769,1.016 4.769,3.298 l 0,26.114 0,8.509 0,26.114 C 4.769,-1.016 2.634,0 0,0 Z"
             style="fill:#ec7117;stroke:#231f20;stroke-width:2.3499999;stroke-linecap:butt;stroke-linejoin:miter;stroke-miterlimit:10;stroke-dasharray:none;stroke-opacity:1;fill-opacity:1"
             id="path184"
             inkscape:connector-curvature="0" /></g><g
           id="g186"
           transform="translate(126.3924,216.7637)"
           style="fill:#ec7117;fill-opacity:1"><path
             d="m 0,0 -24.423,0 c -3.186,0 -5.383,-0.864 -4.133,-4.505 0.947,-3.009 1.851,-5.397 4.133,-5.397 l 24.423,0 3.771,0 24.422,0 c 2.283,0 3.186,2.388 4.133,5.397 C 33.577,-0.864 31.379,0 28.193,0 L 3.771,0 0,0 Z"
             style="fill:#ec7117;fill-opacity:1;fill-rule:nonzero;stroke:none"
             id="path188"
             inkscape:connector-curvature="0" /></g><g
           id="g190"
           transform="translate(126.3924,216.7637)"
           style="fill:#ec7117;fill-opacity:1"><path
             d="m 0,0 -24.423,0 c -3.186,0 -5.383,-0.864 -4.133,-4.505 0.947,-3.009 1.851,-5.397 4.133,-5.397 l 24.423,0 3.771,0 24.422,0 c 2.283,0 3.186,2.388 4.133,5.397 C 33.577,-0.864 31.379,0 28.193,0 L 3.771,0 0,0 Z"
             style="fill:#ec7117;stroke:#231f20;stroke-width:2.3499999;stroke-linecap:butt;stroke-linejoin:miter;stroke-miterlimit:10;stroke-dasharray:none;stroke-opacity:1;fill-opacity:1"
             id="path192"
             inkscape:connector-curvature="0" /></g></g></g></g></svg>