<?xml version="1.0" encoding="utf-8"?>
<!-- Generator: Adobe Illustrator 15.1.0, SVG Export Plug-In . SVG Version: 6.00 Build 0)  -->
<!DOCTYPE svg PUBLIC "-//W3C//DTD SVG 1.1//EN" "http://www.w3.org/Graphics/SVG/1.1/DTD/svg11.dtd">
<svg version="1.1" id="Layer_3" xmlns="http://www.w3.org/2000/svg" xmlns:xlink="http://www.w3.org/1999/xlink" x="0px" y="0px"
	 width="877.939px" height="801px" viewBox="0 0 877.939 801" enable-background="new 0 0 877.939 801" xml:space="preserve">
<g>
	<path fill="none" stroke="#F58220" stroke-width="12.0209" stroke-linecap="round" stroke-miterlimit="10" d="M271.114,264.576
		c8.265-2.255,26.295-2.255,54.092,34.559c23.548,31.186,101.417,133.722,100.665,230.633c-0.349,45.1-5.257,39.818-12.771,30.051
		c-7.512-9.767-43.566-62.571-92.404-99.917c-25.542-19.535-169.872-67.313-142.735-157.761
		c4.507-15.026,31.551-39.066,65.356-32.304"/>
	<path fill="none" stroke="#F58220" stroke-width="12.0209" stroke-linecap="round" stroke-miterlimit="10" d="M397.324,462.907
		c-61.603-139.734-166.66-239.795-187.062-256.178c-16.524-13.271-24.039-23.287-53.338-18.779
		c-28.833,4.437-75.876,46.789-90.149,62.353c-8.736,9.525-27.044,31.553,27.797,9.766c45.074-17.905,81.342,8.482,82.456,41.311
		l-0.77,6.771"/>
	<path fill="none" stroke="#F58220" stroke-width="12.0209" stroke-linecap="round" stroke-miterlimit="10" d="M242.29,270.595
		c-77.104,47.32,29.2,170.524,129.492,173.906"/>
	<path fill="none" stroke="#F58220" stroke-width="12.0209" stroke-linecap="round" stroke-miterlimit="10" d="M152.417,232.272
		c-6.009-6.762-14.273-7.511-19.532-0.753c-5.26,6.763-1.502,21.279,13.523,24.737c23.711,5.456,36.058-19.477,20.282-39.011
		c-11.348-14.049-39.815-16.094-54.841-6.328"/>
	<path fill="none" stroke="#F58220" stroke-width="12.0209" stroke-linecap="round" stroke-miterlimit="10" d="M221.225,507.668
		c16.459-35.746,51.835-4.507,70.991,1.127c29.684,8.731,48.451,4.505,31.549-46.2"/>
	<path fill="none" stroke="#F58220" stroke-width="12.0209" stroke-linecap="round" stroke-miterlimit="10" d="M233.175,525.26
		c5.637-17.277,19.533-21.411,59.039-16.465"/>
	<path fill="none" stroke="#F58220" stroke-width="12.0209" stroke-linecap="round" stroke-miterlimit="10" d="M251.957,538.782
		c3.006-17.277,17.657-22.16,39.066-18.779c21.409,3.382,45.45,4.504,53.338-2.255"/>
	<path fill="none" stroke="#F58220" stroke-width="12.0209" stroke-linecap="round" stroke-miterlimit="10" d="M386.672,473.049
		c0,0,7.074,22.477,6.009,36.06"/>
	<path fill="none" stroke="#F58220" stroke-width="12.0209" stroke-linecap="round" stroke-miterlimit="10" d="M345.864,481.688
		c0.375,15.399,0.375,32.304,2.628,47.328"/>
	<path fill="none" stroke="#F58220" stroke-width="12.0209" stroke-linecap="round" stroke-miterlimit="10" d="M277.125,323.173
		c8.075,7.323,20.847-9.953,3.944-17.654c-13.203-6.016-31.177,12.396-15.025,33.617c12.418,16.318,61.337,73.472,129.325,122.679"
		/>
	<path fill="none" stroke="#F58220" stroke-width="12.0209" stroke-linecap="round" stroke-miterlimit="10" d="M311.465,366.798
		c6.751,6.123,17.429-8.323,3.297-14.76c-11.036-5.027-26.063,10.362-12.56,28.104"/>
	<path fill="none" stroke="#F58220" stroke-width="12.0209" stroke-linecap="round" stroke-miterlimit="10" d="M402.207,478.308
		c3.005,9.766,6.763,27.42,6.763,48.078"/>
	<path fill="none" stroke="#F58220" stroke-width="12.0209" stroke-linecap="round" stroke-miterlimit="10" d="M369.201,463.54
		c2.896,6.511,5.774,20.401,6.354,26.556"/>
	<path fill="none" stroke="#F58220" stroke-width="12.0209" stroke-linecap="round" stroke-miterlimit="10" d="M257.967,286.738
		c-37.665,25.868-26.136,57.384,41.319,116.067"/>
</g>
<g>
	<path fill="none" stroke="#F58220" stroke-width="12.0209" stroke-linecap="round" stroke-miterlimit="10" d="M605.098,264.576
		c-8.265-2.255-26.295-2.255-54.092,34.559c-23.548,31.186-101.417,133.722-100.665,230.633c0.349,45.1,5.257,39.818,12.771,30.051
		c7.512-9.767,43.566-62.571,92.404-99.917c25.542-19.535,169.872-67.313,142.735-157.761
		c-4.507-15.026-31.551-39.066-65.356-32.304"/>
	<path fill="none" stroke="#F58220" stroke-width="12.0209" stroke-linecap="round" stroke-miterlimit="10" d="M478.888,462.907
		c61.603-139.734,166.66-239.795,187.062-256.178c16.524-13.271,24.039-23.287,53.338-18.779
		c28.833,4.437,75.876,46.789,90.149,62.353c8.736,9.525,27.044,31.553-27.797,9.766c-45.074-17.905-81.342,8.482-82.456,41.311
		l0.77,6.771"/>
	<path fill="none" stroke="#F58220" stroke-width="12.0209" stroke-linecap="round" stroke-miterlimit="10" d="M633.922,270.595
		c77.104,47.32-29.2,170.524-129.492,173.906"/>
	<path fill="none" stroke="#F58220" stroke-width="12.0209" stroke-linecap="round" stroke-miterlimit="10" d="M723.795,232.272
		c6.009-6.762,14.273-7.511,19.532-0.753c5.26,6.763,1.502,21.279-13.523,24.737c-23.711,5.456-36.058-19.477-20.282-39.011
		c11.348-14.049,39.815-16.094,54.841-6.328"/>
	<path fill="none" stroke="#F58220" stroke-width="12.0209" stroke-linecap="round" stroke-miterlimit="10" d="M654.987,507.668
		c-16.459-35.746-51.835-4.507-70.991,1.127c-29.684,8.731-48.451,4.505-31.549-46.2"/>
	<path fill="none" stroke="#F58220" stroke-width="12.0209" stroke-linecap="round" stroke-miterlimit="10" d="M643.037,525.26
		c-5.637-17.277-19.533-21.411-59.039-16.465"/>
	<path fill="none" stroke="#F58220" stroke-width="12.0209" stroke-linecap="round" stroke-miterlimit="10" d="M624.255,538.782
		c-3.006-17.277-17.657-22.16-39.066-18.779c-21.409,3.382-45.45,4.504-53.338-2.255"/>
	<path fill="none" stroke="#F58220" stroke-width="12.0209" stroke-linecap="round" stroke-miterlimit="10" d="M489.54,473.049
		c0,0-7.074,22.477-6.009,36.06"/>
	<path fill="none" stroke="#F58220" stroke-width="12.0209" stroke-linecap="round" stroke-miterlimit="10" d="M530.348,481.688
		c-0.375,15.399-0.375,32.304-2.628,47.328"/>
	<path fill="none" stroke="#F58220" stroke-width="12.0209" stroke-linecap="round" stroke-miterlimit="10" d="M599.087,323.173
		c-8.075,7.323-20.847-9.953-3.944-17.654c13.203-6.016,31.177,12.396,15.025,33.617c-12.418,16.318-61.337,73.472-129.325,122.679"
		/>
	<path fill="none" stroke="#F58220" stroke-width="12.0209" stroke-linecap="round" stroke-miterlimit="10" d="M564.747,366.798
		c-6.751,6.123-17.429-8.323-3.297-14.76c11.036-5.027,26.063,10.362,12.56,28.104"/>
	<path fill="none" stroke="#F58220" stroke-width="12.0209" stroke-linecap="round" stroke-miterlimit="10" d="M474.005,478.308
		c-3.005,9.766-6.763,27.42-6.763,48.078"/>
	<path fill="none" stroke="#F58220" stroke-width="12.0209" stroke-linecap="round" stroke-miterlimit="10" d="M507.011,463.54
		c-2.896,6.511-5.774,20.401-6.354,26.556"/>
	<path fill="none" stroke="#F58220" stroke-width="12.0209" stroke-linecap="round" stroke-miterlimit="10" d="M618.245,286.738
		c37.665,25.868,26.136,57.384-41.319,116.067"/>
</g>
<g>
	<path fill="#F58220" d="M67.14,609.354h24.822l16.548,90.111l24.672-64.236l-9.026-25.875h25.424l27.831,89.209l20.76-89.209
		h24.371l-29.185,106.357h-32.193l-18.354-54.457l-19.857,54.457H90.007L67.14,609.354z"/>
	<path fill="#F58220" d="M236.388,609.354h69.803v20.008h-44.229v23.617h40.919v18.654h-40.919v24.07h47.688v20.008h-73.263V609.354
		z"/>
	<path fill="#F58220" d="M328.609,609.354h37.309c26.025,0,39.564,9.326,39.564,29.334c0,8.877-5.266,15.496-10.681,18.955v0.301
		c7.221,2.559,18.353,10.381,18.353,24.973c0,19.406-11.433,32.795-42.724,32.795h-41.821V609.354z M363.51,652.979
		c11.132,0,16.698-1.955,16.698-11.432c0-9.027-6.018-12.637-18.053-12.637h-7.822v24.068H363.51z M367.271,695.704
		c13.539,0,20.309-3.609,20.309-12.186c0-9.627-7.371-13.088-22.114-13.088h-11.132v25.273H367.271z"/>
	<path fill="#F58220" d="M430.609,609.354h25.574v106.357h-25.574V609.354z"/>
	<path fill="#F58220" d="M479.652,609.354h29.636l41.821,72.961l-0.752-11.885v-61.076h25.574v106.357h-30.539l-40.768-71.156
		l0.602,14.141v57.016h-25.574V609.354z"/>
	<path fill="#F58220" d="M630.244,609.354h32.945l35.804,106.357h-26.477l-10.079-31.141h-35.955l-11.583,31.141h-25.574
		L630.244,609.354z M656.419,666.069l-10.682-40.92l-12.486,40.92H656.419z"/>
	<path fill="#F58220" d="M763.684,692.847l-12.034-13.99c-1.806,0.15-3.762,0.15-5.717,0.15h-7.823v36.705h-25.725V609.354h41.37
		c23.92,0,41.069,10.98,41.069,34.75c0,11.885-5.717,22.266-17.149,28.734l10.831,11.732c5.867,6.318,12.486,10.531,24.07,13.541
		l-5.717,19.557C786.099,716.614,774.817,705.784,763.684,692.847z M746.835,661.104c15.194,0,21.663-6.318,21.663-16.398
		c0-10.68-4.362-15.193-18.053-15.193H738.11v31.592H746.835z"/>
</g>
<g>
	<path fill="#F58220" d="M354.444,57.482h-13.862c0,0-22.472,40.743-30.545,55.384c-8.039-14.62-30.407-55.18-30.407-55.18
		l-13.861-0.204l38.132,69.612v13.451h12.239v-13.392L354.444,57.482"/>
	<path fill="#F58220" d="M348.426,139.038l13.984-0.135c0,0,22.747-41.5,30.831-56.148c8.027,14.633,31.104,56.416,31.104,56.416
		l13.724-0.133l-44.825-81.659L348.426,139.038"/>
	<polygon fill="#F58220" points="458.981,57.968 458.981,139.129 512.357,139.129 512.357,126.944 471.165,126.944 471.165,57.968 	
		"/>
	<path fill="#F58220" d="M663.766,56.693c-29.256,0-44.588,20.784-44.588,41.32c0,10.831,4.04,20.938,11.339,28.481
		c8.169,8.407,19.669,12.85,33.249,12.85h31.098v-22.003h-12.196v9.831h-18.901c-22.267,0-32.425-15.11-32.425-29.159
		c0-14.035,10.158-29.137,32.425-29.137h31.197V56.693H663.766"/>
	<path fill="#F58220" d="M183.569,57.534v21.99h12.18v-9.817h18.889c10.229,0,18.69,3.161,24.513,9.154
		c5.102,5.252,7.912,12.357,7.912,19.985c0,14.038-10.149,29.148-32.425,29.148h-31.182v12.186h31.182
		c29.284,0,44.601-20.797,44.601-41.334c0-10.827-4.028-20.922-11.353-28.47c-8.165-8.409-19.66-12.843-33.248-12.843H183.569"/>
	<path fill="#F58220" d="M520.834,98.417c0,22.427,18.237,40.678,40.66,40.678c22.456,0,40.708-18.251,40.708-40.678
		c0-22.428-18.252-40.681-40.708-40.681C539.072,57.737,520.834,75.99,520.834,98.417 M533.059,98.417
		c0-15.688,12.775-28.441,28.436-28.441c15.692,0,28.472,12.754,28.472,28.441c0,15.677-12.779,28.438-28.472,28.438
		C545.834,126.856,533.059,114.094,533.059,98.417"/>
</g>
</svg>
